<?xml version="1.0" encoding="UTF-8"?><!DOCTYPE svg PUBLIC "-//W3C//DTD SVG 1.1//EN" "http://www.w3.org/Graphics/SVG/1.1/DTD/svg11.dtd"><svg xmlns="http://www.w3.org/2000/svg" xmlns:xlink="http://www.w3.org/1999/xlink"><defs><clipPath id="a"><path fill="#fff" d="M0 0h16v16H0z"/></clipPath><clipPath id="a"><path fill="#fff" d="M0 0h16v16H0z"/></clipPath><clipPath id="a"><path fill="#fff" d="M0 0h16v16H0z"/></clipPath><clipPath id="a"><path fill="#fff" d="M0 0h16v16H0z"/></clipPath><clipPath id="a"><path fill="#fff" d="M0 0h16v16H0z"/></clipPath><clipPath id="a"><path fill="#fff" d="M0 0h16v16H0z"/></clipPath><clipPath id="a"><path fill="#fff" d="M0 0h16v16H0z"/></clipPath><clipPath id="a"><path fill="#fff" d="M0 0h16v16H0z"/></clipPath><clipPath id="a"><path fill="#fff" d="M0 0h16v16H0z"/></clipPath><clipPath id="a"><path fill="#fff" d="M0 0h16v16H0z"/></clipPath><clipPath id="a"><path fill="#fff" d="M0 0h16v16H0z"/></clipPath><clipPath id="a"><path fill="#fff" d="M0 0h16v16H0z"/></clipPath><clipPath id="a"><path fill="#fff" d="M0 0h16v16H0z"/></clipPath><clipPath id="a"><path fill="#fff" d="M0 0h16v16H0z"/></clipPath><clipPath id="a"><path fill="#fff" d="M0 0h16v16H0z"/></clipPath><clipPath id="a"><path fill="#fff" d="M0 0h16v16H0z"/></clipPath><clipPath id="a"><path fill="#fff" d="M0 0h16v16H0z"/></clipPath><clipPath id="a"><path fill="#fff" d="M0 0h16v16H0z"/></clipPath><clipPath id="a"><path fill="#fff" d="M0 0h16v16H0z"/></clipPath><clipPath id="a"><path fill="#fff" d="M0 0h16v16H0z"/></clipPath><clipPath id="a"><path fill="#fff" d="M0 0h16v16H0z"/></clipPath><clipPath id="a"><path fill="#fff" d="M0 0h16v16H0z"/></clipPath><clipPath id="a"><path fill="#fff" d="M0 0h16v16H0z"/></clipPath><clipPath id="a"><path fill="#fff" d="M0 0h16v16H0z"/></clipPath><clipPath id="a"><path fill="#fff" d="M0 0h16v16H0z"/></clipPath><clipPath id="a"><rect width="32" height="32" rx="16" fill="#fff"/></clipPath></defs><symbol id="ChartBuyTimeIcon" viewBox="0 0 16 16"><g clip-path="url(#a)"><path d="M8 0a8 8 0 1 1 0 16A8 8 0 0 1 8 0Zm0 1.143a6.857 6.857 0 1 0 0 13.714A6.857 6.857 0 0 0 8 1.143ZM9.5 2.5a.5.5 0 0 1 .09.992L9.5 3.5h-1v1.028a4.5 4.5 0 1 1-1 0V3.5h-1a.5.5 0 0 1-.492-.41L6 3a.5.5 0 0 1 .41-.492L6.5 2.5h3ZM8 5.5a3.5 3.5 0 1 0 0 7 3.5 3.5 0 0 0 0-7Zm1.95 1.649a.5.5 0 0 1 .054.638l-.058.069L8.35 9.429a.5.5 0 0 1-.76-.643l.058-.069 1.594-1.573a.5.5 0 0 1 .707.005Z" fill="#333"/></g></symbol><symbol id="ChartSellTimeIcon" viewBox="0 0 16 16"><g clip-path="url(#a)"><path d="M8 0a8 8 0 1 1 0 16A8 8 0 0 1 8 0Zm0 1.143a6.857 6.857 0 1 0 0 13.714A6.857 6.857 0 0 0 8 1.143ZM9.5 2.5a.5.5 0 0 1 .09.992L9.5 3.5h-1v1.028a4.5 4.5 0 1 1-1 0V3.5h-1a.5.5 0 0 1-.492-.41L6 3a.5.5 0 0 1 .41-.492L6.5 2.5h3ZM8 5.5a3.5 3.5 0 1 0 0 7 3.5 3.5 0 0 0 0-7Zm1.95 1.649a.5.5 0 0 1 .054.638l-.058.069L8.35 9.429a.5.5 0 0 1-.76-.643l.058-.069 1.594-1.573a.5.5 0 0 1 .707.005Z" fill="#4BB4B3"/></g></symbol><symbol id="ChartEntrySpotIcon" viewBox="0 0 16 16"><g clip-path="url(#a)"><path d="M8 0a8 8 0 1 1 0 16A8 8 0 0 1 8 0Zm0 1.143a6.858 6.858 0 0 0-6.84 6.356H8.13L6.167 5.496a.593.593 0 0 1-.066-.744l.066-.081a.563.563 0 0 1 .808 0l2.858 2.917A.585.585 0 0 1 10 8l-.006-.081a.6.6 0 0 1 .005.05L10 8a.46.46 0 0 1-.006.082l-.004.012a.566.566 0 0 1-.157.318L6.975 11.33a.563.563 0 0 1-.808 0 .592.592 0 0 1 0-.825L8.131 8.5h-6.97A6.858 6.858 0 1 0 8 1.144Z" fill="#333"/></g></symbol><symbol id="ChartExitSpotIcon" viewBox="0 0 16 16"><g clip-path="url(#a)"><path d="M8 0a8 8 0 0 1 7.994 8.318L16 8a8.2 8.2 0 0 1-.06.985l-.005.042a8.101 8.101 0 0 1-.043.292l-.01.052a7.655 7.655 0 0 1-.202.876 7.96 7.96 0 0 1-.676 1.623 8.038 8.038 0 0 1-3.134 3.133l.253-.146a8.066 8.066 0 0 1-1.5.703 7.874 7.874 0 0 1-1.625.378 8.004 8.004 0 0 1-.306.032l-.015.002a8.112 8.112 0 0 1-.428.024L8 16a8 8 0 0 1-8-8v-.001l.004-.248.002-.072L0 8a8.133 8.133 0 0 1 .243-1.964A7.961 7.961 0 0 1 .997 4.13a8.04 8.04 0 0 1 2.7-2.876l.18-.111c.086-.052.17-.1.253-.146l-.253.146A7.983 7.983 0 0 1 5.352.449l.03-.01A7.928 7.928 0 0 1 8 0Zm0 11.429H4.572v2.29A6.636 6.636 0 0 0 8 14.667v-3.238Zm5.719 0h-2.29v2.29a6.7 6.7 0 0 0 2.29-2.29Zm-2.29-3.43H8v3.43h3.429v-3.43ZM4.572 8 1.333 8c0 1.254.346 2.427.948 3.429h2.29v-3.43Zm9.147-3.428h-2.29V8h3.238a6.636 6.636 0 0 0-.948-3.429Zm-5.72 0H4.573V8H8V4.572Zm.002-3.238v3.238h3.428v-2.29A6.635 6.635 0 0 0 8 1.333Zm-5.72 3.238h2.29v-2.29a6.7 6.7 0 0 0-2.29 2.29Z" fill="#4BB4B3"/></g></symbol><symbol id="ChartSelectedTicksIcon" viewBox="0 0 16 16"><g clip-path="url(#a)" fill="#333"><path d="M8 0a8 8 0 1 1 0 16A8 8 0 0 1 8 0Zm0 1.143a6.857 6.857 0 1 0 0 13.714A6.857 6.857 0 0 0 8 1.143Z"/><path d="M5.88 12v-.74h1.95V5.64h-.07L6 7.28l-.49-.53 1.85-1.73h1.31v6.24h1.8V12H5.88Z"/></g></symbol><symbol id="ChartResetIcon" viewBox="0 0 16 16"><g clip-path="url(#a)"><path d="M8 0a8 8 0 1 1 0 16A8 8 0 0 1 8 0Zm0 1.143a6.857 6.857 0 1 0 0 13.714A6.857 6.857 0 0 0 8 1.143ZM5 7.5a.5.5 0 0 1 .5.5 2.5 2.5 0 0 0 4 2.001L8.5 10a.5.5 0 0 1-.09-.992L8.5 9h2a.5.5 0 0 1 .492.41L11 9.5v2a.5.5 0 0 1-.992.09L10 11.5v-.628A3.5 3.5 0 0 1 4.5 8a.5.5 0 0 1 .5-.5ZM5.5 4a.5.5 0 0 1 .492.41L6 4.5v.627A3.5 3.5 0 0 1 11.5 8a.5.5 0 0 1-1 0 2.5 2.5 0 0 0-4-2h1a.5.5 0 0 1 .09.992L7.5 7h-2a.5.5 0 0 1-.492-.41L5 6.5v-2a.5.5 0 0 1 .5-.5Z" fill="#333"/></g></symbol><symbol id="ChartSettlementIcon" viewBox="0 0 16 16"><g clip-path="url(#a)"><path d="M8 0a8 8 0 1 1 0 16A8 8 0 0 1 8 0Zm0 1.143a6.857 6.857 0 1 0 0 13.714A6.857 6.857 0 0 0 8 1.143ZM8 7a1 1 0 1 1 0 2 1 1 0 0 1 0-2ZM4 7a1 1 0 1 1 0 2 1 1 0 0 1 0-2Zm8 0a1 1 0 1 1 0 2 1 1 0 0 1 0-2Z" fill="#333"/></g></symbol><symbol id="ChartStartTimeIcon" viewBox="0 0 16 16"><g clip-path="url(#a)"><path d="M8 0a8 8 0 1 1 0 16A8 8 0 0 1 8 0Zm0 1.333a6.667 6.667 0 1 0 0 13.334A6.667 6.667 0 0 0 8 1.333Zm0 1.334a3.667 3.667 0 0 1 3.667 3.658c0 1.963-3.397 6.637-3.541 6.835l-.127.173-.125-.173c-.145-.196-3.54-4.876-3.54-6.835a3.667 3.667 0 0 1 3.665-3.658Zm-.001 1.589c-.919 0-1.663.743-1.663 1.66a1.664 1.664 0 0 0 3.327-.001c0-.917-.746-1.66-1.664-1.66Z" fill="#999"/></g></symbol><symbol id="ChartExitTimeIcon" viewBox="0 0 16 16"><rect width="16" height="16" rx="8" fill="#4BB4B3"/><path d="M3.798 2.667c.245 0 .444.199.444.444v.445h8.202c.491 0 .89.398.89.889v5.333c0 .491-.399.889-.89.889H4.242v2.222a.444.444 0 0 1-.444.445h-.02a.444.444 0 0 1-.445-.445V3.111c0-.245.2-.444.445-.444h.02ZM12.424 8h-1.818v1.778h1.818V8ZM8.788 8H6.97v1.778h1.818V8Zm1.818-1.777H8.788V8h1.818V6.223Zm-3.636 0H5.15V8H6.97V6.223Zm1.818-1.778H6.97v1.778h1.818V4.445Zm3.636 0h-1.818v1.778h1.818V4.445Z" fill="#fff"/></symbol><symbol id="ChartCrosshairActiveIcon" viewBox="0 0 16 16"><g clip-path="url(#a)"><path d="M8 0a1 1 0 0 1 1 1v.577A6.505 6.505 0 0 1 14.425 7H15a1 1 0 1 1 0 2h-.577a6.505 6.505 0 0 1-5.422 5.423L9 15a1 1 0 1 1-2 0v-.576A6.505 6.505 0 0 1 1.577 9L1 9a1 1 0 1 1 0-2h.576A6.505 6.505 0 0 1 7 1.576V1a1 1 0 0 1 1-1Zm0 3.5a4.5 4.5 0 1 0 0 9 4.5 4.5 0 0 0 0-9Z" fill="#333"/></g></symbol><symbol id="ChartCrosshairTooltipIcon" viewBox="0 0 16 16"><g clip-path="url(#a)"><path d="M8 0a1 1 0 0 1 1 1v.577A6.505 6.505 0 0 1 14.425 7H15a1 1 0 1 1 0 2h-.577a6.505 6.505 0 0 1-5.422 5.423L9 15a1 1 0 1 1-2 0v-.576A6.505 6.505 0 0 1 1.577 9L1 9a1 1 0 1 1 0-2h.576A6.505 6.505 0 0 1 7 1.576V1a1 1 0 0 1 1-1Zm0 3.5a4.5 4.5 0 1 0 0 9 4.5 4.5 0 0 0 0-9ZM6 7a1 1 0 1 1 0 2 1 1 0 0 1 0-2Zm4 0a1 1 0 1 1 0 2H9a1 1 0 1 1 0-2h1Z" fill="#333"/></g></symbol><symbol id="ChartCrosshairDisabledIcon" viewBox="0 0 16 16"><g clip-path="url(#a)"><path d="M2.5 7a1 1 0 0 1 1 1A4.5 4.5 0 0 0 8 12.5a1 1 0 0 1 1 1V15a1 1 0 1 1-2 0v-.576A6.505 6.505 0 0 1 1.577 9L1 9a1 1 0 1 1 0-2h1.5ZM8 0a1 1 0 0 1 1 1v.576a6.472 6.472 0 0 1 3.597 1.827A6.472 6.472 0 0 1 14.424 7H15a1 1 0 1 1 0 2h-.576a6.466 6.466 0 0 1-1.173 2.835l1.456 1.458a1 1 0 0 1-1.414 1.414l-12-12a1 1 0 0 1 1.414-1.414l1.458 1.456A6.467 6.467 0 0 1 7 1.576V1a1 1 0 0 1 1-1Zm3.183 4.817a4.503 4.503 0 0 0-5.58-.629l6.209 6.208a4.503 4.503 0 0 0-.63-5.579Z" fill="#333"/></g></symbol><symbol id="ToolsLeftIcon" viewBox="0 0 18 7"><path fill-rule="evenodd" clip-rule="evenodd" d="M17.959 4a3 3 0 0 1-5.918 0H0V3h12.041a3 3 0 0 1 5.918 0H18v1h-.041Z" fill="#333"/></symbol><symbol id="ToolsRightIcon" viewBox="0 0 18 7"><path fill-rule="evenodd" clip-rule="evenodd" d="M5.959 4A3 3 0 0 1 .04 4H0V3h.041A3 3 0 0 1 5.96 3H18v1H5.959Z" fill="#333"/></symbol><symbol id="ToolsDownloadIcon" viewBox="0 0 24 24"><path d="M5.5 16a.5.5 0 0 1 .5.5V18h12v-1.5a.5.5 0 0 1 .5-.5h3a.5.5 0 0 1 .5.5v5a.5.5 0 0 1-.5.5h-19a.5.5 0 0 1-.5-.5v-5a.5.5 0 0 1 .5-.5h3ZM5 17H3v4h18v-4h-2v1.5a.5.5 0 0 1-.5.5h-13a.5.5 0 0 1-.5-.5V17Zm8.5-15a.5.5 0 0 1 .5.5V10h2.5a.5.5 0 0 1 .4.8l-4.5 6a.5.5 0 0 1-.8 0l-4.5-6a.5.5 0 0 1 .4-.8H10V2.5a.5.5 0 0 1 .5-.5h3ZM13 3h-2v7.5a.5.5 0 0 1-.5.5h-2l3.5 4.667L15.5 11h-2a.5.5 0 0 1-.5-.5V3Z" fill="#333"/></symbol><symbol id="ToolsDrawingToolsIcon" viewBox="0 0 24 24"><path d="m2.291 21.955-.039-.02-.008-.005a.506.506 0 0 1-.172-.17l-.009-.016a.486.486 0 0 1-.037-.402l2-6a.5.5 0 0 1 .046-.101l.034-.049.04-.046 13-13a.5.5 0 0 1 .707 0l4 4a.5.5 0 0 1 0 .708l-13 13a.507.507 0 0 1-.195.12L5.582 21 19.5 21a.5.5 0 0 1 .492.41l.008.09a.5.5 0 0 1-.5.5H2.515a.487.487 0 0 1-.187-.03l-.006-.002a.213.213 0 0 1-.03-.013Zm2.427-5.53L3.29 20.709l4.284-1.428-2.856-2.856ZM15 5.707 5.207 15.5l3.292 3.292 9.793-9.793L15 5.707Zm2.5-2.5L15.707 5l3.292 3.292L20.793 6.5 17.5 3.207Z" fill="#333"/></symbol><symbol id="ToolsIndicatorsIcon" viewBox="0 0 24 24"><path d="M20.5 2a.5.5 0 0 1 .492.41L21 2.5V4h.5a.5.5 0 0 1 .492.41L22 4.5a.5.5 0 0 1-.41.492L21.5 5H21v8.5a.5.5 0 0 1-.41.492L20.5 14a.5.5 0 0 1-.492-.41L20 13.5V5H4v15h13.5a.5.5 0 0 1 .492.41l.008.09a.5.5 0 0 1-.41.492L17.5 21H4v.5a.5.5 0 0 1-.41.492L3.5 22a.5.5 0 0 1-.492-.41L3 21.5V21h-.5a.5.5 0 0 1-.492-.41L2 20.5a.5.5 0 0 1 .41-.492L2.5 20H3V5h-.5a.5.5 0 0 1-.492-.41L2 4.5a.5.5 0 0 1 .41-.492L2.5 4H3V2.5a.5.5 0 0 1 .41-.492L3.5 2a.5.5 0 0 1 .492.41L4 2.5V4h16V2.5a.5.5 0 0 1 .41-.492L20.5 2Zm-1 13a.5.5 0 0 1 .492.41l.008.09V17h1.5a.5.5 0 0 1 .492.41l.008.09a.5.5 0 0 1-.41.492L21.5 18H20v1.5a.5.5 0 0 1-.41.492L19.5 20a.5.5 0 0 1-.492-.41L19 19.5V18h-1.5a.5.5 0 0 1-.492-.41L17 17.5a.5.5 0 0 1 .41-.492L17.5 17H19v-1.5a.5.5 0 0 1 .41-.492L19.5 15Zm-2.39-5.812a.5.5 0 1 1 .78.624l-4 5a.5.5 0 0 1-.79-.012l-2.654-3.539-3.592 3.593a.5.5 0 0 1-.708-.708l4-4a.5.5 0 0 1 .754.054l2.613 3.484 3.597-4.496Z" fill="#333"/></symbol><symbol id="ToolsTemplatesIcon" viewBox="0 0 24 24"><path d="M21.5 2a.5.5 0 0 1 .5.5v19a.5.5 0 0 1-.5.5h-19a.5.5 0 0 1-.5-.5v-19a.5.5 0 0 1 .5-.5h19ZM7 18H3v3h4v-3Zm14 0H8v3h13v-3ZM7 14H3v3h4v-3Zm14 0H8v3h13v-3Zm0-11H3v10h18V3Zm-3.89 2.188a.5.5 0 1 1 .78.624l-4 5a.5.5 0 0 1-.79-.012l-2.654-3.539-3.592 3.593a.5.5 0 0 1-.708-.708l4-4a.5.5 0 0 1 .754.054l2.613 3.484 3.597-4.496Z" fill="#333"/></symbol><symbol id="ToolsChartTypeAreaIcon" viewBox="0 0 24 24"><g fill="#333"><path d="M20.87 6s.13.06.13.24V21H3v-4.73l5.53-5.07.12-.13s0-.05.06-.05h.06l.12.12 3.5 2.75a1 1 0 0 0 .62.21 1 1 0 0 0 .74-.33L20.82 6h.05Zm0-1a1.06 1.06 0 0 0-.79.36L13 13.13l-3.5-2.75a1.06 1.06 0 0 0-1.66.08L2 15.83V22h20V6.24A1.18 1.18 0 0 0 20.87 5ZM2.096 3.624c.299 0 .515-.056.648-.168a.545.545 0 0 0 .208-.432v-.056a.631.631 0 0 0-.2-.488c-.128-.123-.312-.184-.552-.184-.224 0-.435.059-.632.176a1.464 1.464 0 0 0-.504.488l-.752-.704a2.91 2.91 0 0 1 .344-.376c.123-.117.261-.216.416-.296.155-.085.328-.15.52-.192.192-.048.408-.072.648-.072.299 0 .568.035.808.104.245.07.453.17.624.304.176.128.31.283.4.464.096.181.144.384.144.608 0 .176-.03.336-.088.48-.053.144-.13.27-.232.376a1.248 1.248 0 0 1-.336.264 1.53 1.53 0 0 1-.408.136v.048c.165.032.317.085.456.16.144.07.267.16.368.272.107.112.19.245.248.4.059.15.088.32.088.512 0 .25-.05.477-.152.68a1.496 1.496 0 0 1-.432.52 2.09 2.09 0 0 1-.672.336c-.261.075-.55.112-.864.112-.283 0-.533-.03-.752-.088a2.362 2.362 0 0 1-.576-.232 2.254 2.254 0 0 1-.424-.344 2.851 2.851 0 0 1-.312-.408l.888-.688c.123.23.272.419.448.568.181.144.424.216.728.216.272 0 .483-.067.632-.2a.715.715 0 0 0 .232-.56v-.048c0-.23-.088-.4-.264-.512-.17-.117-.408-.176-.712-.176h-.504v-1h.52Zm5.1 3.472c-.73 0-1.271-.253-1.623-.76-.352-.507-.528-1.216-.528-2.128 0-.912.176-1.621.528-2.128.352-.507.893-.76 1.624-.76.73 0 1.272.253 1.624.76.352.507.528 1.216.528 2.128 0 .912-.176 1.621-.528 2.128-.352.507-.893.76-1.624.76Zm0-1.016c.32 0 .542-.117.665-.352s.184-.565.184-.992V3.68c0-.427-.061-.757-.184-.992s-.344-.352-.664-.352c-.32 0-.541.117-.664.352s-.184.565-.184.992v1.056c0 .427.061.757.184.992s.344.352.664.352Zm7.19-2.744h-.024l-.408.816-1.088 1.976-1.064-1.968-.424-.88h-.024V7H10.21V1.416h1.288l1.368 2.616h.016l1.352-2.616h1.296V7h-1.144V3.336Z"/></g></symbol><symbol id="ToolsChartTypeCandleIcon" viewBox="0 0 24 24"><g fill="#333"><path d="M18 8.5a.5.5 0 0 1 .492.41L18.5 9v2h2.7a.8.8 0 0 1 .8.8v9.4a.8.8 0 0 1-.8.8h-2.7v1.5a.5.5 0 0 1-.992.09l-.008-.09V22h-2.7a.8.8 0 0 1-.8-.8v-9.4a.8.8 0 0 1 .8-.8h2.7V9a.5.5 0 0 1 .41-.492L18 8.5ZM6 9a.5.5 0 0 1 .492.41l.008.09v1.499L9.2 11a.8.8 0 0 1 .8.8V19a.8.8 0 0 1-.8.8l-2.742-.001c.018.04.03.085.037.13L6.5 20v2a.5.5 0 0 1-.992.09L5.5 22v-2c0-.072.015-.14.042-.201L2.8 19.8A.8.8 0 0 1 2 19v-7.2a.8.8 0 0 1 .8-.8l2.7-.001V9.5a.5.5 0 0 1 .41-.492L6 9ZM2.096 3.624c.299 0 .515-.056.648-.168a.545.545 0 0 0 .208-.432v-.056a.631.631 0 0 0-.2-.488c-.128-.123-.312-.184-.552-.184-.224 0-.435.059-.632.176a1.464 1.464 0 0 0-.504.488l-.752-.704a2.91 2.91 0 0 1 .344-.376c.123-.117.261-.216.416-.296.155-.085.328-.15.52-.192.192-.048.408-.072.648-.072.299 0 .568.035.808.104.245.07.453.17.624.304.176.128.31.283.4.464.096.181.144.384.144.608 0 .176-.03.336-.088.48-.053.144-.13.27-.232.376a1.248 1.248 0 0 1-.336.264 1.53 1.53 0 0 1-.408.136v.048c.165.032.317.085.456.16.144.07.267.16.368.272.107.112.19.245.248.4.059.15.088.32.088.512 0 .25-.05.477-.152.68a1.496 1.496 0 0 1-.432.52 2.09 2.09 0 0 1-.672.336c-.261.075-.55.112-.864.112-.283 0-.533-.03-.752-.088a2.362 2.362 0 0 1-.576-.232 2.254 2.254 0 0 1-.424-.344 2.851 2.851 0 0 1-.312-.408l.888-.688c.123.23.272.419.448.568.181.144.424.216.728.216.272 0 .483-.067.632-.2a.715.715 0 0 0 .232-.56v-.048c0-.23-.088-.4-.264-.512-.17-.117-.408-.176-.712-.176h-.504v-1h.52Zm5.1 3.472c-.73 0-1.271-.253-1.623-.76-.352-.507-.528-1.216-.528-2.128 0-.912.176-1.621.528-2.128.352-.507.893-.76 1.624-.76.73 0 1.272.253 1.624.76.352.507.528 1.216.528 2.128 0 .912-.176 1.621-.528 2.128-.352.507-.893.76-1.624.76Zm0-1.016c.32 0 .542-.117.665-.352s.184-.565.184-.992V3.68c0-.427-.061-.757-.184-.992s-.344-.352-.664-.352c-.32 0-.541.117-.664.352s-.184.565-.184.992v1.056c0 .427.061.757.184.992s.344.352.664.352Zm7.19-2.744h-.024l-.408.816-1.088 1.976-1.064-1.968-.424-.88h-.024V7H10.21V1.416h1.288l1.368 2.616h.016l1.352-2.616h1.296V7h-1.144V3.336Z"/></g></symbol><symbol id="ToolsChartTypeHollowIcon" viewBox="0 0 24 24"><g fill="#333"><path d="M18 8.5a.5.5 0 0 1 .492.41L18.5 9v2h2.7a.8.8 0 0 1 .8.8v9.4a.8.8 0 0 1-.8.8h-2.7v1.5a.5.5 0 0 1-.992.09l-.008-.09V22h-2.7a.8.8 0 0 1-.8-.8v-9.4a.8.8 0 0 1 .8-.8h2.7V9a.5.5 0 0 1 .41-.492L18 8.5ZM6 9a.5.5 0 0 1 .492.41l.008.09v1.499L9.2 11a.8.8 0 0 1 .8.8V19a.8.8 0 0 1-.8.8l-2.742-.001c.018.04.03.085.037.13L6.5 20v2a.5.5 0 0 1-.992.09L5.5 22v-2c0-.072.015-.14.042-.201L2.8 19.8A.8.8 0 0 1 2 19v-7.2a.8.8 0 0 1 .8-.8l2.7-.001V9.5a.5.5 0 0 1 .41-.492L6 9Zm11.995 3H15v9h6v-9l-2.99-.001L18 12h-.005ZM9 12H3v6.8h6V12ZM2.096 3.624c.299 0 .515-.056.648-.168a.545.545 0 0 0 .208-.432v-.056a.631.631 0 0 0-.2-.488c-.128-.123-.312-.184-.552-.184-.224 0-.435.059-.632.176a1.464 1.464 0 0 0-.504.488l-.752-.704a2.91 2.91 0 0 1 .344-.376c.123-.117.261-.216.416-.296.155-.085.328-.15.52-.192.192-.048.408-.072.648-.072.299 0 .568.035.808.104.245.07.453.17.624.304.176.128.31.283.4.464.096.181.144.384.144.608 0 .176-.03.336-.088.48-.053.144-.13.27-.232.376a1.248 1.248 0 0 1-.336.264 1.53 1.53 0 0 1-.408.136v.048c.165.032.317.085.456.16.144.07.267.16.368.272.107.112.19.245.248.4.059.15.088.32.088.512 0 .25-.05.477-.152.68a1.496 1.496 0 0 1-.432.52 2.09 2.09 0 0 1-.672.336c-.261.075-.55.112-.864.112-.283 0-.533-.03-.752-.088a2.362 2.362 0 0 1-.576-.232 2.254 2.254 0 0 1-.424-.344 2.851 2.851 0 0 1-.312-.408l.888-.688c.123.23.272.419.448.568.181.144.424.216.728.216.272 0 .483-.067.632-.2a.715.715 0 0 0 .232-.56v-.048c0-.23-.088-.4-.264-.512-.17-.117-.408-.176-.712-.176h-.504v-1h.52Zm5.1 3.472c-.73 0-1.271-.253-1.623-.76-.352-.507-.528-1.216-.528-2.128 0-.912.176-1.621.528-2.128.352-.507.893-.76 1.624-.76.73 0 1.272.253 1.624.76.352.507.528 1.216.528 2.128 0 .912-.176 1.621-.528 2.128-.352.507-.893.76-1.624.76Zm0-1.016c.32 0 .542-.117.665-.352s.184-.565.184-.992V3.68c0-.427-.061-.757-.184-.992s-.344-.352-.664-.352c-.32 0-.541.117-.664.352s-.184.565-.184.992v1.056c0 .427.061.757.184.992s.344.352.664.352Zm7.19-2.744h-.024l-.408.816-1.088 1.976-1.064-1.968-.424-.88h-.024V7H10.21V1.416h1.288l1.368 2.616h.016l1.352-2.616h1.296V7h-1.144V3.336Z"/></g></symbol><symbol id="ToolsChartTypeOhlcIcon" viewBox="0 0 24 24"><g fill="#333"><path d="M6.5 9a.5.5 0 0 1 .492.41L7 9.5V12h4.5a.5.5 0 0 1 .492.41l.008.09a.5.5 0 0 1-.41.492L11.5 13H7v8.5a.5.5 0 0 1-.41.492L6.5 22a.5.5 0 0 1-.492-.41L6 21.5V19H2.5a.5.5 0 0 1-.492-.41L2 18.5a.5.5 0 0 1 .41-.492L2.5 18H6V9.5a.5.5 0 0 1 .41-.492L6.5 9Zm10 1a.5.5 0 0 1 .492.41l.008.09V19h4.5a.5.5 0 0 1 .492.41l.008.09a.5.5 0 0 1-.41.492L21.5 20H17v1.5a.5.5 0 0 1-.41.492L16.5 22a.5.5 0 0 1-.492-.41L16 21.5V16h-3.5a.5.5 0 0 1-.492-.41L12 15.5a.5.5 0 0 1 .41-.492L12.5 15H16v-4.5a.5.5 0 0 1 .41-.492L16.5 10ZM2.096 3.624c.299 0 .515-.056.648-.168a.545.545 0 0 0 .208-.432v-.056a.631.631 0 0 0-.2-.488c-.128-.123-.312-.184-.552-.184-.224 0-.435.059-.632.176a1.464 1.464 0 0 0-.504.488l-.752-.704a2.91 2.91 0 0 1 .344-.376c.123-.117.261-.216.416-.296.155-.085.328-.15.52-.192.192-.048.408-.072.648-.072.299 0 .568.035.808.104.245.07.453.17.624.304.176.128.31.283.4.464.096.181.144.384.144.608 0 .176-.03.336-.088.48-.053.144-.13.27-.232.376a1.248 1.248 0 0 1-.336.264 1.53 1.53 0 0 1-.408.136v.048c.165.032.317.085.456.16.144.07.267.16.368.272.107.112.19.245.248.4.059.15.088.32.088.512 0 .25-.05.477-.152.68a1.496 1.496 0 0 1-.432.52 2.09 2.09 0 0 1-.672.336c-.261.075-.55.112-.864.112-.283 0-.533-.03-.752-.088a2.362 2.362 0 0 1-.576-.232 2.254 2.254 0 0 1-.424-.344 2.851 2.851 0 0 1-.312-.408l.888-.688c.123.23.272.419.448.568.181.144.424.216.728.216.272 0 .483-.067.632-.2a.715.715 0 0 0 .232-.56v-.048c0-.23-.088-.4-.264-.512-.17-.117-.408-.176-.712-.176h-.504v-1h.52Zm5.1 3.472c-.73 0-1.271-.253-1.623-.76-.352-.507-.528-1.216-.528-2.128 0-.912.176-1.621.528-2.128.352-.507.893-.76 1.624-.76.73 0 1.272.253 1.624.76.352.507.528 1.216.528 2.128 0 .912-.176 1.621-.528 2.128-.352.507-.893.76-1.624.76Zm0-1.016c.32 0 .542-.117.665-.352s.184-.565.184-.992V3.68c0-.427-.061-.757-.184-.992s-.344-.352-.664-.352c-.32 0-.541.117-.664.352s-.184.565-.184.992v1.056c0 .427.061.757.184.992s.344.352.664.352Zm7.19-2.744h-.024l-.408.816-1.088 1.976-1.064-1.968-.424-.88h-.024V7H10.21V1.416h1.288l1.368 2.616h.016l1.352-2.616h1.296V7h-1.144V3.336Z"/></g></symbol><symbol id="TradeSellConditionMeetIcon" viewBox="0 0 16 16"><g clip-path="url(#a)"><path d="M7.4 8a.6.6 0 0 1 .6.6v4.658a.6.6 0 0 1-1.024.424L6 12.707l-2.576 2.575a.6.6 0 0 1-.848 0L.717 13.424a.6.6 0 0 1 0-.849L3.293 10l-.976-.976A.6.6 0 0 1 2.741 8h4.66ZM7 9H3.707l1 1-3 3L3 14.293l3-3 1 1V9ZM13.424.717l1.859 1.858a.6.6 0 0 1 0 .849L12.707 6l.976.975A.6.6 0 0 1 13.259 8H8.6a.6.6 0 0 1-.6-.6V2.74a.6.6 0 0 1 1.024-.424l.976.975L12.576.717a.6.6 0 0 1 .848 0Zm-.424.99-3 3-1-1V7h3.293l-1-1 3-3L13 1.707Z" fill="#333"/></g></symbol><symbol id="TradeSellExpiredIcon" viewBox="0 0 16 16"><path d="M2.5 1a.5.5 0 0 1 .5.5V2h10a1 1 0 0 1 1 1v6a1 1 0 0 1-1 1H3v4.5a.5.5 0 0 1-1 0v-13a.5.5 0 0 1 .5-.5ZM11 7H9v2h2V7ZM7 7H5v2h2V7Zm6-2h-2v2h2V5ZM9 5H7v2h2V5ZM5 5H3v2h2V5Zm6-2H9v2h2V3ZM7 3H5v2h2V3Z" fill="#333"/></symbol><symbol id="TradeSellManualSoldIcon" viewBox="0 0 16 16"><path d="M8 3a1.5 1.5 0 0 1 1.5 1.5V8h.675a3 3 0 0 1 .95.154l1.191.397a2.49 2.49 0 0 1 1.576 3.151c-.024.07-.024.07-.05.137l-.91 2.275A3 3 0 0 1 10.145 16H8.5a3 3 0 0 1-2.4-1.2l-2.6-3.467V11a1.535 1.535 0 0 1 2.387-1.277l.613.409V4.5A1.5 1.5 0 0 1 8 3Zm0 1a.5.5 0 0 0-.5.5v5.697A.965.965 0 0 1 6 11l-.668-.445A.535.535 0 0 0 4.5 11l2.4 3.2a2 2 0 0 0 1.6.8h1.646a2 2 0 0 0 1.857-1.257l.91-2.275.03-.082A1.49 1.49 0 0 0 12 9.5l-1.192-.397A2 2 0 0 0 10.175 9H8.5V4.5A.5.5 0 0 0 8 4Zm4.5-4A1.5 1.5 0 0 1 14 1.5v4A1.5 1.5 0 0 1 12.5 7H11V6h1.5a.5.5 0 0 0 .5-.5v-4a.5.5 0 0 0-.5-.5h-9a.5.5 0 0 0-.5.5v4a.5.5 0 0 0 .5.5H5v1H3.5A1.5 1.5 0 0 1 2 5.5v-4A1.5 1.5 0 0 1 3.5 0h9Z" fill="#333"/></symbol><symbol id="TradeBarrierIcon" viewBox="0 0 16 16"><path d="M1 8.5h14v-1H1v1Z" fill="#333"/></symbol><symbol id="TradeBarrierResetIcon" viewBox="0 0 16 16"><path d="M1 8h2V7H1v1Zm3 0h2V7H4v1Zm3 0h2V7H7v1Zm3 0h2V7h-2v1Zm3 0h2V7h-2v1Z" fill="#333"/></symbol><symbol id="TradeCommissionIcon" viewBox="0 0 16 16"><g fill-rule="evenodd" clip-rule="evenodd" fill="#333"><path d="M4.5 6a1.5 1.5 0 1 0 0-3 1.5 1.5 0 0 0 0 3Zm0 1a2.5 2.5 0 1 0 0-5 2.5 2.5 0 0 0 0 5ZM11.5 13a1.5 1.5 0 1 0 0-3 1.5 1.5 0 0 0 0 3Zm0 1a2.5 2.5 0 1 0 0-5 2.5 2.5 0 0 0 0 5ZM12.854 3.146a.5.5 0 0 1 0 .708l-9 9a.5.5 0 0 1-.708-.708l9-9a.5.5 0 0 1 .708 0Z"/></g></symbol><symbol id="TradeDealCancellationIcon" viewBox="0 0 16 16"><path d="M13 0a3 3 0 0 1 .96 5.843c-.298 4.758-2.226 7.831-5.79 9.127a.5.5 0 0 1-.34 0C3.941 13.556 2 10.026 2 4.5a.5.5 0 0 1 .394-.489 9.782 9.782 0 0 0 2.617-.95c.979-.534 1.86-1.175 2.644-1.923a.5.5 0 0 1 .69 0c.523.499 1.088.95 1.697 1.353A3.003 3.003 0 0 1 13 0ZM8 2.178l-.31.269a13.568 13.568 0 0 1-2.2 1.492c-.516.281-1.068.52-1.657.715l-.449.139-.381.102.009.326c.148 4.472 1.704 7.313 4.666 8.612l.25.104.072.028.072-.028c2.944-1.175 4.57-3.794 4.875-7.938L13 6a3.001 3.001 0 0 1-2.92-2.306 13.45 13.45 0 0 1-1.434-.977l-.336-.27L8 2.178ZM8 4a.5.5 0 0 1 .492.41l.008.09v7a.5.5 0 0 1-.992.09L7.5 11.5v-7A.5.5 0 0 1 8 4Zm5-3a2 2 0 1 0 0 4 2 2 0 0 0 0-4Zm.5 1.5a.5.5 0 0 1 .09.992l-.09.008h-1a.5.5 0 0 1-.09-.992l.09-.008h1Z" fill="#333"/></symbol><symbol id="TradeDealProtectionIcon" viewBox="0 0 16 16"><path d="M13.5 0a1.5 1.5 0 0 1 1.493 1.356L15 1.5V2h.5a.5.5 0 0 1 .492.41L16 2.5v3a.5.5 0 0 1-.41.492L15.5 6h-1.551c-.33 4.669-2.255 7.689-5.778 8.97a.5.5 0 0 1-.342 0C3.942 13.556 2 10.026 2 4.5a.5.5 0 0 1 .394-.489 9.782 9.782 0 0 0 2.617-.95c.979-.534 1.86-1.175 2.644-1.923a.5.5 0 0 1 .69 0 12.437 12.437 0 0 0 2.644 1.923l.011.006V2.5a.5.5 0 0 1 .41-.492L11.5 2h.5v-.5A1.5 1.5 0 0 1 13.5 0ZM8 2.178l-.31.269a13.568 13.568 0 0 1-2.2 1.492c-.516.281-1.068.52-1.657.715l-.449.139-.381.102.009.326c.148 4.472 1.704 7.313 4.666 8.612l.25.104.072.028.072-.028c2.943-1.174 4.57-3.793 4.875-7.936L11.5 6a.5.5 0 0 1-.492-.41L11 5.5V4.186l-.162-.077-.327-.17a13.67 13.67 0 0 1-1.789-1.162l-.412-.33L8 2.178ZM8 4a.5.5 0 0 1 .492.41l.008.09v7a.5.5 0 0 1-.992.09L7.5 11.5v-7A.5.5 0 0 1 8 4Zm7-1h-3v2h3V3Zm-1.5-2a.5.5 0 0 0-.492.41L13 1.5V2h1v-.5a.5.5 0 0 0-.5-.5Z" fill="#333"/></symbol><symbol id="TradeTimeIcon" viewBox="0 0 16 16"><g clip-path="url(#a)"><path d="M8 0a8 8 0 1 1 0 16A8 8 0 0 1 8 0Zm0 1a7 7 0 1 0 0 14A7 7 0 0 0 8 1Zm0 2a.5.5 0 0 1 .5.5V8h3a.5.5 0 0 1 0 1H8a.5.5 0 0 1-.5-.5v-5A.5.5 0 0 1 8 3Z" fill="#333"/></g></symbol><symbol id="TradeIdIcon" viewBox="0 0 16 16"><path d="M3.5 3a.5.5 0 0 1 .5.5v9a.5.5 0 0 1-1 0v-9a.5.5 0 0 1 .5-.5Zm4.833 0C10.911 3 13 5.239 13 8c0 2.687-1.978 4.879-4.459 4.995L8.333 13H6.467a.503.503 0 0 1-.46-.414L6 12.5v-9a.5.5 0 0 1 .41-.492l.056-.005V3h1.867Zm0 1H7v8h1.333c2.062 0 3.734-1.79 3.734-4 0-2.14-1.569-3.888-3.542-3.995L8.333 4Z" fill="#333"/></symbol><symbol id="TradeTargetIcon" viewBox="0 0 16 16"><g fill-rule="evenodd" clip-rule="evenodd" fill="#333" clip-path="url(#a)"><path d="M8 0a.5.5 0 0 1 .5.5v4a.5.5 0 0 1-1 0v-4A.5.5 0 0 1 8 0ZM8 11a.5.5 0 0 1 .5.5v4a.5.5 0 0 1-1 0v-4A.5.5 0 0 1 8 11ZM11 8a.5.5 0 0 1 .5-.5h4a.5.5 0 0 1 0 1h-4A.5.5 0 0 1 11 8ZM0 8a.5.5 0 0 1 .5-.5h4a.5.5 0 0 1 0 1h-4A.5.5 0 0 1 0 8Z"/><path d="M8 14A6 6 0 1 0 8 2a6 6 0 0 0 0 12Zm0 1A7 7 0 1 0 8 1a7 7 0 0 0 0 14Z"/></g></symbol><symbol id="TradeHighestLowestIcon" viewBox="0 0 16 16"><path fill-rule="evenodd" clip-rule="evenodd" d="M10.959 8.5a3 3 0 0 1-5.918 0H0v-1h5.041a3 3 0 0 1 5.918 0H16v1h-5.041Z" fill="#333"/></symbol><symbol id="CategoriesMarketForexIcon" viewBox="0 0 16 16"><g clip-path="url(#a)"><path d="M9.5 3a.5.5 0 0 1 .429.243L11 5.028l1.071-1.785a.5.5 0 0 1 .343-.235L12.5 3h3a.5.5 0 0 1 .4.8l-2.798 3.731 2.827 4.712a.5.5 0 0 1-.342.75L15.5 13h-3a.5.5 0 0 1-.447-.276L11 10.618l-1.053 2.106a.5.5 0 0 1-.354.267L9.5 13h-3a.5.5 0 0 1-.429-.757L8.898 7.53 7.48 5.639A.5.5 0 0 1 7 6H3.5v1H6a.5.5 0 0 1 .492.41l.008.09v2a.5.5 0 0 1-.5.5H3.5v2.5a.5.5 0 0 1-.41.492L3 13H1a.5.5 0 0 1-.5-.5v-9A.5.5 0 0 1 1 3h8.5ZM6.249 4H1.5v8h1V9.5a.5.5 0 0 1 .41-.492L3 9h2.5V8H3a.5.5 0 0 1-.492-.41L2.5 7.5v-2A.5.5 0 0 1 3 5h3.5v-.665L6.249 4Zm2.968 0H7.5v.001L9.9 7.2a.5.5 0 0 1 .093.382l-.027.098-.037.077L7.382 12H9.19l1.363-2.724a.5.5 0 0 1 .846-.078l.048.078L12.81 12h1.808l-2.546-4.243a.5.5 0 0 1-.016-.484L12.1 7.2 14.5 4h-1.718l-1.353 2.257a.5.5 0 0 1-.804.074l-.054-.074L9.217 4Z" fill="#333"/></g></symbol><symbol id="CategoriesMarketSyntheticIndicesIcon" viewBox="0 0 16 16"><path d="M12.5 1h.023a.494.494 0 0 1 .27.095c.07.051.125.117.161.195l-.038-.068a.496.496 0 0 1 .044.083l2.994 6.485a.617.617 0 0 1 .036.109A.476.476 0 0 1 16 8l-.003.055a.476.476 0 0 1-.004.03L16 8a.498.498 0 0 1-.071.258l-.003.004-4 6.5-.004.005a.496.496 0 0 1-.187.174l-.011.006-.026.012a.52.52 0 0 1-.045.017l.07-.029A.503.503 0 0 1 11.5 15l.073-.005a.464.464 0 0 1-.049.005H3.5a.544.544 0 0 1-.15-.023.542.542 0 0 1-.08-.033.507.507 0 0 1-.132-.1l.062.056a.497.497 0 0 1-.154-.19l.036.064a.51.51 0 0 1-.017-.028l-.019-.037-3-6.5A.5.5 0 0 1 0 8v-.01a.5.5 0 0 1 .006-.066L0 8a.502.502 0 0 1 .089-.285l-.032.053a.5.5 0 0 1 .02-.035l.012-.018 4.5-6.5a.51.51 0 0 1 .187-.162l.019-.009a.499.499 0 0 1 .039-.016l-.058.025A.501.501 0 0 1 5 1l-.083.007A.497.497 0 0 1 4.99 1H12.5ZM6.827 8.5H1.28l2.322 5.031L4.6 12.2a.5.5 0 0 1 .847.523L5.4 12.8 4.5 14h6.19L7.989 8.598l-1.584 2.195a.5.5 0 0 1-.856-.508l.046-.078L6.827 8.5Zm5.577-6.014L8.783 7.5H10.5a.5.5 0 0 1 .09.992l-.09.008H9.059l2.486 4.971L14.604 8.5H12.5a.5.5 0 0 1-.09-.992l.09-.008h2.218l-2.314-5.014ZM11.521 2H5.809l.638 1.276A.5.5 0 0 1 5.6 3.8l-.047-.076-.624-1.246L1.453 7.5H7.44l-.887-1.776A.5.5 0 0 1 7.4 5.2l.047.076.699 1.398L11.521 2Z" fill="#333"/></symbol><symbol id="CategoriesMarketIndicesIcon" viewBox="0 0 16 16"><g clip-path="url(#a)"><path d="M8 2a6.002 6.002 0 0 1 5.667 4.025h-.08c1.34 0 2.413.6 2.413 1.97.012 1.617-1.141 2.082-2.906 2.08a18.32 18.32 0 0 1-6.012-1.708 19.993 19.993 0 0 0-2.89-.902c-1.463-.313-2.316-.302-2.897.215a.92.92 0 0 0-.293.636.987.987 0 0 0 .195.676c.195.222.6.41 1.003.55a5.947 5.947 0 0 1-.192-1.223l.019-.005c.277-.062.6-.073.98-.04L3 8c0 .711.149 1.388.416 2h.812a8.628 8.628 0 0 1-.218-1.573l.183.038c.279.065.558.135.836.212a7.4 7.4 0 0 0 .229 1.324h.856a16.372 16.372 0 0 1-.087-1.017c.354.117.706.245 1.055.383l-.027-.008c.018.22.04.434.066.643h1.446c1.466.552 2.987.914 4.527 1.073h.06A6 6 0 0 1 8 14a5.998 5.998 0 0 1-5.204-3.012l.13.028c-.666-.134-1.9-.532-2.414-1.115C.15 9.463-.036 8.843.006 8.214c.041-.63.306-1.203.715-1.556.877-.78 1.91-.793 3.647-.42 1.02.234 2.028.548 3.044.953a17.556 17.556 0 0 0 5.723 1.639c1.16 0 1.87-.286 1.865-.83 0-.349-.403-.628-1.04-.706.017.154.03.31.035.468a4.806 4.806 0 0 1-.86.068l-.14-.015L13 8c0-.71-.148-1.387-.416-2h-.811c.123.526.2 1.086.22 1.667-.338-.057-.676-.127-1.013-.208A7.346 7.346 0 0 0 10.742 6L9.886 6c.045.38.077.776.096 1.186a15.883 15.883 0 0 1-1.023-.34 13.972 13.972 0 0 0-.08-.847H7.12l-.008.075a20.716 20.716 0 0 0-2.745-.837c-.599-.128-1.113-.21-1.567-.232A5.994 5.994 0 0 1 8 2Zm.712 9.002H7.288a8.5 8.5 0 0 0 .246.924c.128.383.269.685.405.89L8 12.9l.06-.084c.115-.17.231-.41.34-.705l.066-.185a8.5 8.5 0 0 0 .246-.924Zm-2.444 0h-.65c.28.603.638 1.097 1.04 1.443a9.29 9.29 0 0 1-.39-1.444Zm4.113 0h-.649a9.382 9.382 0 0 1-.389 1.444c.401-.347.76-.84 1.038-1.445ZM4.535 11h-.534c.292.39.64.735 1.033 1.025A6.528 6.528 0 0 1 4.535 11Zm6.93 0a6.694 6.694 0 0 1-.361.785l-.138.239.23-.18c.3-.249.57-.532.803-.844h-.534ZM5.032 3.974l-.114.089A5.03 5.03 0 0 0 4 5h.535c.107-.276.228-.539.361-.785l.136-.241Zm5.934 0 .025.041c.179.303.338.633.474.985H12a5.03 5.03 0 0 0-1.034-1.026Zm-4.31-.42c-.402.348-.759.842-1.038 1.446h.65c.104-.541.236-1.028.389-1.446Zm2.686 0 .04.111c.137.392.255.841.35 1.335h.65c-.28-.605-.637-1.1-1.04-1.445ZM8 3.1l-.06.085c-.137.205-.278.507-.406.89a8.5 8.5 0 0 0-.246.925h1.424a8.5 8.5 0 0 0-.246-.925c-.128-.383-.269-.685-.405-.89L8 3.1Z" fill="#333"/></g></symbol><symbol id="CategoriesMarketStocksIcon" viewBox="0 0 16 16"><g fill-rule="evenodd" clip-rule="evenodd" fill="#333" clip-path="url(#a)"><path d="M15.5 1.5a1.5 1.5 0 0 1-1.993 1.417l-2.233 2.79a1.5 1.5 0 1 1-2.628.145l-2-1.998a1.494 1.494 0 0 1-1.293 0l-2 2a1.5 1.5 0 1 1-.707-.707l2-2a1.5 1.5 0 1 1 2.708 0l2 2a1.494 1.494 0 0 1 1.14-.064l2.232-2.79A1.5 1.5 0 1 1 15.5 1.5Zm-5 5a.498.498 0 0 1-.5.5.498.498 0 0 1-.5-.5.5.5 0 0 1 1 0Zm-8.114.318a.5.5 0 1 1-.77-.636.5.5 0 0 1 .77.636Zm11.2-5.598a.5.5 0 1 1 .828.558.5.5 0 0 1-.829-.558ZM6 3a.5.5 0 1 0 0-1 .5.5 0 0 0 0 1Z"/><path d="M12.5 6.5a1.5 1.5 0 0 1 3 0v8a1.5 1.5 0 0 1-3 0v-8ZM14 6a.5.5 0 0 0-.5.5v8a.5.5 0 0 0 1 0v-8A.5.5 0 0 0 14 6ZM.5 10.5a1.5 1.5 0 1 1 3 0v4a1.5 1.5 0 0 1-3 0v-4ZM2 10a.5.5 0 0 0-.5.5v4a.5.5 0 0 0 1 0v-4A.5.5 0 0 0 2 10ZM8.5 10.5a1.5 1.5 0 1 1 3 0v4a1.5 1.5 0 0 1-3 0v-4ZM10 10a.5.5 0 0 0-.5.5v4a.5.5 0 0 0 1 0v-4a.5.5 0 0 0-.5-.5ZM4.5 7.5a1.5 1.5 0 1 1 3 0v7a1.5 1.5 0 0 1-3 0v-7ZM6 7a.5.5 0 0 0-.5.5v7a.5.5 0 0 0 1 0v-7A.5.5 0 0 0 6 7Z"/></g></symbol><symbol id="CategoriesMarketCommoditiesIcon" viewBox="0 0 16 16"><g clip-path="url(#a)"><path d="M10 3a.5.5 0 0 1 .447.276L12.308 7H13.5a.5.5 0 0 1 .398.197l.05.08 2 4A.5.5 0 0 1 15.5 12H.5a.5.5 0 0 1-.447-.724l2-4A.5.5 0 0 1 2.5 7h1.19l1.863-3.724a.5.5 0 0 1 .354-.267L6 3h4Zm3.19 5H9.846L8.72 11h5.969l-1.5-3ZM6.153 8H2.809l-1.5 3h5.969L6.153 8Zm2.625 0H7.22L8 10.076 8.777 8Zm.912-4H6.309l-1.5 3h6.38l-1.5-3Z" fill="#333"/></g></symbol><symbol id="CategoriesMarketCryptocurrenciesIcon" viewBox="0 0 16 16"><path fill-rule="evenodd" clip-rule="evenodd" d="M10.75 0v2.666a6.02 6.02 0 0 1 1.782 1.402l.61.703-2.14 2.14-.701-.836a3 3 0 1 0 0 3.85l.701-.837 2.14 2.14-.61.704a6.02 6.02 0 0 1-1.782 1.402V16h-2.5v-2.005a6.104 6.104 0 0 1-.5 0V16h-2.5v-2.666A6 6 0 0 1 2 8a5.999 5.999 0 0 1 3.25-5.334V0h2.5v2.005a6.086 6.086 0 0 1 .5 0V0h2.5Zm-2 3.056a5.02 5.02 0 0 0-2 .101V1h-.5v2.315a5 5 0 0 0-.5 9.152 5.022 5.022 0 0 0 .5.218V15h.5v-2.158a4.97 4.97 0 0 0 1.5.152 5.043 5.043 0 0 0 1-.152V15h.5v-2.315a4.983 4.983 0 0 0 2.027-1.408l-.71-.71A3.983 3.983 0 0 1 7.935 12a4 4 0 1 1 3.132-6.566l.71-.71A5.026 5.026 0 0 0 9.75 3.315V1h-.5v2.158a4.974 4.974 0 0 0-.5-.102Z" fill="#333"/></symbol><symbol id="CategoriesMarketBasketIndicesIcon" viewBox="0 0 16 16"><path fill-rule="evenodd" clip-rule="evenodd" d="M8 1a.5.5 0 0 1 .41.213L11.76 6h3.74a.5.5 0 0 1 0 1h-.585l-1.424 7.592A.5.5 0 0 1 13 15H3a.5.5 0 0 1-.491-.408L1.085 7H.5a.5.5 0 0 1 0-1h3.74l3.35-4.787A.5.5 0 0 1 8 1ZM4.493 7h9.404l-1.312 7h-9.17L2.102 7h2.391Zm6.047-1H5.46L8 2.372 10.54 6ZM5.5 8a.5.5 0 0 1 .5.5v4a.5.5 0 0 1-1 0v-4a.5.5 0 0 1 .5-.5ZM8 8a.5.5 0 0 1 .5.5v4a.5.5 0 0 1-1 0v-4A.5.5 0 0 1 8 8Zm2.5 0a.5.5 0 0 1 .5.5v4a.5.5 0 0 1-1 0v-4a.5.5 0 0 1 .5-.5Z" fill="#333"/></symbol><symbol id="CategoriesTradeTypeHighLowIcon" viewBox="0 0 16 16"><g clip-path="url(#a)"><path d="M15.5 15a.5.5 0 0 1 .09.992L15.5 16h-8a.5.5 0 0 1-.09-.992L7.5 15h8ZM4.784 1.089l.07.057 3 3a.5.5 0 0 1-.638.765l-.07-.057L5 2.707V15.5a.5.5 0 0 1-.41.492L4.5 16a.5.5 0 0 1-.492-.41L4 15.5V2.707L1.854 4.854a.5.5 0 0 1-.638.057l-.07-.057a.5.5 0 0 1-.057-.638l.057-.07 3-3a.5.5 0 0 1 .638-.057ZM11.5 15a.463.463 0 0 1-.151-.023l-.04-.015a.497.497 0 0 1-.076-.04l-.035-.024-.005-.003-.001-.001-.046-.04a.522.522 0 0 0 .042.037l.01.007a.475.475 0 0 1-.04-.033l-3.012-3.011a.5.5 0 0 1 .638-.765l.07.057L11 13.292V.5a.5.5 0 0 1 .41-.492L11.5 0a.5.5 0 0 1 .492.41L12 .5v12.792l2.146-2.146a.5.5 0 0 1 .638-.057l.07.057a.5.5 0 0 1 .057.638l-.057.07-3.013 3.012a.476.476 0 0 1-.19.11.484.484 0 0 1-.046.013l-.036.005h-.002l-.014.003-.026.001h.02l.019-.004L11.5 15Zm-3-15a.5.5 0 0 1 .09.992L8.5 1h-8A.5.5 0 0 1 .41.008L.5 0h8Z" fill="#333"/></g></symbol><symbol id="CategoriesTradeTypeAllIcon" viewBox="0 0 16 16"><path d="M4 11a1 1 0 0 1 1 1v2a1 1 0 0 1-1 1H2a1 1 0 0 1-1-1v-2a1 1 0 0 1 1-1h2Zm5 0a1 1 0 0 1 1 1v2a1 1 0 0 1-1 1H7a1 1 0 0 1-1-1v-2a1 1 0 0 1 1-1h2Zm5 0a1 1 0 0 1 1 1v2a1 1 0 0 1-1 1h-2a1 1 0 0 1-1-1v-2a1 1 0 0 1 1-1h2ZM4 12H2v2h2v-2Zm5 0H7v2h2v-2Zm5 0h-2v2h2v-2ZM4 6a1 1 0 0 1 1 1v2a1 1 0 0 1-1 1H2a1 1 0 0 1-1-1V7a1 1 0 0 1 1-1h2Zm5 0a1 1 0 0 1 1 1v2a1 1 0 0 1-1 1H7a1 1 0 0 1-1-1V7a1 1 0 0 1 1-1h2Zm5 0a1 1 0 0 1 1 1v2a1 1 0 0 1-1 1h-2a1 1 0 0 1-1-1V7a1 1 0 0 1 1-1h2ZM4 7H2v2h2V7Zm5 0H7v2h2V7Zm5 0h-2v2h2V7ZM4 1a1 1 0 0 1 1 1v2a1 1 0 0 1-1 1H2a1 1 0 0 1-1-1V2a1 1 0 0 1 1-1h2Zm5 0a1 1 0 0 1 1 1v2a1 1 0 0 1-1 1H7a1 1 0 0 1-1-1V2a1 1 0 0 1 1-1h2Zm5 0a1 1 0 0 1 1 1v2a1 1 0 0 1-1 1h-2a1 1 0 0 1-1-1V2a1 1 0 0 1 1-1h2ZM4 2H2v2h2V2Zm5 0H7v2h2V2Zm5 0h-2v2h2V2Z" fill="#333"/></symbol><symbol id="CategoriesTradeTypeDigitsIcon" viewBox="0 0 16 16"><g clip-path="url(#a)"><path d="M15 0a1 1 0 0 1 1 1v14a1 1 0 0 1-1 1H1a1 1 0 0 1-1-1V1a1 1 0 0 1 1-1h14Zm0 1H1v14h14V1Zm-4 8a2 2 0 1 1 0 4 2 2 0 0 1 0-4Zm0 1a1 1 0 1 0 0 2 1 1 0 0 0 0-2ZM5 3a2 2 0 1 1 0 4 2 2 0 0 1 0-4Zm0 1a1 1 0 1 0 0 2 1 1 0 0 0 0-2Z" fill="#333"/></g></symbol><symbol id="CategoriesTradeTypeInsOutsIcon" viewBox="0 0 16 16"><g clip-path="url(#a)"><path d="M15.5 15a.5.5 0 0 1 .09.992L15.5 16H.5a.5.5 0 0 1-.09-.992L.5 15h15ZM5 12.292l2.146-2.146a.5.5 0 0 1 .638-.057l.07.057a.5.5 0 0 1 .057.638l-.057.07-3.013 3.012a.493.493 0 0 1-.236.123l-.036.005h-.002l-.014.003-.026.001h.02l.019-.004L4.5 14a.46.46 0 0 1-.151-.023l-.04-.015a.492.492 0 0 1-.076-.04l-.035-.024-.005-.003-.001-.001-.046-.04a.497.497 0 0 0 .042.037l.01.007a.484.484 0 0 1-.04-.033l-3.012-3.011a.5.5 0 0 1 .638-.765l.07.057L4 12.292V8H.5a.5.5 0 0 1-.09-.992L.5 7H4V.5a.5.5 0 0 1 .41-.492L4.5 0a.5.5 0 0 1 .492.41L5 .5V7h6V2.707L8.854 4.854a.5.5 0 0 1-.638.057l-.07-.057a.5.5 0 0 1-.057-.638l.057-.07 3.013-3.012a.485.485 0 0 1 .236-.123l.036-.006L11.5 1h.011c.021 0 .042.002.063.005l.031.006.046.012.04.015a.497.497 0 0 1 .076.04l.039.026.048.042-.043-.038.011.01a.434.434 0 0 1 .02.017l3.012 3.011a.5.5 0 0 1-.638.765l-.07-.057L12 2.707V7h3.5a.5.5 0 0 1 .09.992L15.5 8H12v6.5a.5.5 0 0 1-.41.492L11.5 15a.5.5 0 0 1-.492-.41L11 14.5V8H5v4.292Z" fill="#333"/></g></symbol><symbol id="CategoriesTradeTypeLookbacksIcon" viewBox="0 0 16 16"><g clip-path="url(#a)"><path d="M9.5 0a6.5 6.5 0 1 1 0 13H1.707l2.147 2.146a.5.5 0 0 1 .057.638l-.057.07a.5.5 0 0 1-.708 0l-3-3a.52.52 0 0 1-.135-.249A.499.499 0 0 1 0 12.5l.005.074A.503.503 0 0 1 0 12.51V12.5a.51.51 0 0 1 .077-.267.5.5 0 0 1 .07-.087l-.045.052a.493.493 0 0 1 .033-.04l.011-.012 3-3a.5.5 0 1 1 .708.708L1.707 12H9.5a5.5 5.5 0 0 0 5.496-5.279L15 6.5A5.5 5.5 0 0 0 9.5 1h-5a.5.5 0 0 1 0-1h5Z" fill="#333"/></g></symbol><symbol id="CategoriesTradeTypeMultipliersIcon" viewBox="0 0 16 16"><g fill="#333"><path fill-rule="evenodd" clip-rule="evenodd" d="M13.138 2.155A.5.5 0 0 1 13.5 2h2a.5.5 0 0 1 0 1h-1.786L3.362 13.845A.5.5 0 0 1 3 14H.5a.5.5 0 0 1 0-1h2.286L13.138 2.155Z"/><path d="m6.09 6.642.692-.725L3.37 2.164A.5.5 0 0 0 3 2H.5a.5.5 0 0 0 0 1h2.279l3.31 3.642ZM9.462 10.351l.692-.725L13.221 13H15.5a.5.5 0 0 1 0 1H13a.5.5 0 0 1-.37-.164l-3.168-3.485Z"/></g></symbol><symbol id="CategoriesTradeTypeCfdsIcon" viewBox="0 0 16 16"><g fill-rule="evenodd" clip-rule="evenodd" fill="#333"><path d="M4 6a2 2 0 1 0 0-4 2 2 0 0 0 0 4Zm0 1a3 3 0 1 0 0-6 3 3 0 0 0 0 6ZM12 14a2 2 0 1 0 0-4 2 2 0 0 0 0 4Zm0 1a3 3 0 1 0 0-6 3 3 0 0 0 0 6ZM13.854 2.146a.5.5 0 0 1 0 .708l-11 11a.5.5 0 0 1-.708-.708l11-11a.5.5 0 0 1 .708 0Z"/></g></symbol><symbol id="CategoriesTradeTypeOptionsIcon" viewBox="0 0 16 16"><path d="M4.5 7a.5.5 0 0 1 .492.41L5 7.5v5.792l2.146-2.146a.5.5 0 0 1 .638-.057l.07.057a.5.5 0 0 1 .057.638l-.057.07-3 3-.013.011a.484.484 0 0 1-.039.033l.052-.044A.505.505 0 0 1 4.5 15h-.02a.51.51 0 0 1-.052-.005L4.5 15a.5.5 0 0 1-.284-.089l-.018-.013a.484.484 0 0 1-.04-.033l-.012-.011-3-3a.5.5 0 0 1 .638-.765l.07.057L4 13.294V7.5a.5.5 0 0 1 .5-.5Zm7-6h.011c.021 0 .042.002.063.005L11.5 1a.502.502 0 0 1 .284.089l.018.013c.014.01.027.02.04.033l.012.011 3 3a.5.5 0 0 1-.638.765l-.07-.057L12 2.706V8.5a.5.5 0 0 1-.992.09L11 8.5V2.706l-2.148 2.15a.5.5 0 0 1-.638.057l-.07-.058a.5.5 0 0 1-.057-.637l.058-.07 3.001-3.002.013-.011a.494.494 0 0 1 .039-.033l-.052.044A.504.504 0 0 1 11.5 1Z" fill="#333"/></symbol><symbol id="CategoriesTradeTypeUpsDownsIcon" viewBox="0 0 16 16"><path d="M4.511 0c.021 0 .042.002.063.005l.031.006.046.012.04.015a.494.494 0 0 1 .076.04l.039.026.048.042L4.81.108l.011.01a.504.504 0 0 1 .02.017l3.012 3.011a.5.5 0 0 1-.638.765l-.07-.057L5 1.707V15.5a.5.5 0 0 1-.41.492L4.5 16a.5.5 0 0 1-.492-.41L4 15.5V1.707L1.854 3.854a.5.5 0 0 1-.638.057l-.07-.057a.5.5 0 0 1-.057-.638l.057-.07L4.16.134a.502.502 0 0 1 .236-.123l.036-.006L4.5 0h.011ZM11.5 16a.463.463 0 0 1-.151-.023l-.04-.015a.497.497 0 0 1-.076-.04l-.035-.024-.005-.003-.001-.001-.046-.04a.522.522 0 0 0 .042.037l.01.007a.475.475 0 0 1-.04-.033l-3.012-3.011a.5.5 0 0 1 .638-.765l.07.057L11 14.292V.5a.5.5 0 0 1 .41-.492L11.5 0a.5.5 0 0 1 .492.41L12 .5v13.792l2.146-2.146a.5.5 0 0 1 .638-.057l.07.057a.5.5 0 0 1 .057.638l-.057.07-3.013 3.012a.476.476 0 0 1-.19.11.484.484 0 0 1-.046.013l-.036.005h-.002l-.014.003-.026.002.02-.001.019-.004L11.5 16Z" fill="#333"/></symbol><symbol id="CategoriesAccumulatorIcon" viewBox="0 0 16 16"><g fill="#333" clip-path="url(#a)"><path d="M0 .5A.5.5 0 0 1 .5 0h2a.5.5 0 0 1 .403.204l5.628 7.674 2.692-1.794a.5.5 0 0 1 .63.062L13.708 8H15.5a.5.5 0 0 1 0 1h-2a.5.5 0 0 1-.354-.146l-1.71-1.71-2.313 1.542 2.544 3.469.62.845 1.466 2H15.5a.5.5 0 0 1 0 1h-2a.5.5 0 0 1-.403-.204L8.29 9.24l-2.513 1.675A.5.5 0 0 1 5.1 10.8L2.25 7H.5a.5.5 0 0 1 0-1h2a.5.5 0 0 1 .4.2l2.716 3.622 2.082-1.388-3.365-4.588L3.713 3 2.247 1H.5A.5.5 0 0 1 0 .5Z"/><path d="M0 3h1.417v1H0V3ZM2.917 3h1.416v1H2.917V3ZM5.833 3H7.25v1H5.833V3ZM8.75 3h1.417v1H8.75V3ZM11.667 3h1.416v1h-1.416V3ZM14.583 3H16v1h-1.417V3ZM0 12h1.417v1H0v-1ZM2.917 12h1.416v1H2.917v-1ZM5.833 12H7.25v1H5.833v-1ZM8.75 12h1.417v1H8.75v-1ZM11.667 12h1.416v1h-1.416v-1ZM14.583 12H16v1h-1.417v-1Z"/></g></symbol><symbol id="CategoriesVanillaIcon" viewBox="0 0 16 16"><g fill="#333"><path fill-rule="evenodd" clip-rule="evenodd" d="M12.053 1.276A.5.5 0 0 1 12.5 1h3a.5.5 0 0 1 0 1h-2.691L6.447 14.724a.5.5 0 0 1-.888.012L2.227 8.5H.5a.5.5 0 0 1 0-1h2.026a.5.5 0 0 1 .441.264l3.018 5.647 6.068-12.135Z"/><path d="M11 7.5h4.5a.5.5 0 0 1 0 1h-5l.5-1ZM4 7.5h4l-.5 1h-3l-.5-1Z"/></g></symbol><symbol id="CategoriesTurboIcon" viewBox="0 0 16 16"><g fill="#333" clip-path="url(#a)"><path d="M0 14h1.667v1H0v-1ZM3.667 14h1.666v1H3.667v-1ZM7.333 14H9v1H7.333v-1ZM12 13h4v3h-4l-1.5-1.5L12 13Z"/><path fill-rule="evenodd" clip-rule="evenodd" d="M0 .5A.5.5 0 0 1 .5 0H9v1H.5A.5.5 0 0 1 0 .5Z"/><path d="M15.5 0a.5.5 0 0 1 .5.5v5a.5.5 0 0 1-1 0V1.707L6.854 9.854a.5.5 0 0 1-.708 0L2.5 6.207 0 8.707V7.293l2.146-2.147a.5.5 0 0 1 .708 0L6.5 8.793 14.293 1H11V0h4.5Z"/></g></symbol><symbol id="CategoriesIndicatorActiveIcon" viewBox="0 0 16 16"><path d="m8.889 5.95 2.119-2.98c.206-.34.202-.726.01-1.03a.95.95 0 0 0-.897-.437L7.84 1.5a.992.992 0 0 0-.862.46l-4 6.23c-.185.343-.167.718.027 1.01a.95.95 0 0 0 .882.418l2.725.002-1.573 3.684c-.218.512.437.944.822.541l6.07-6.36.06-.076a.95.95 0 0 0-.887-1.457L8.89 5.951Zm2.171 1-4.017 4.21.787-1.843a.5.5 0 0 0-.46-.697H3.89L7.82 2.5h2.296L7.513 6.16a.5.5 0 0 0 .407.79h3.14Z" fill="#333"/></symbol><symbol id="CategoriesIndicatorAveragesIcon" viewBox="0 0 16 16"><path d="M2.494 10.575c.027-.172.088-.484.19-.89.173-.675.4-1.35.689-1.976C4.164 5.992 5.235 5 6.62 5c1.507 0 2.034.756 2.75 3.275l.103.363C10.355 11.71 11.373 13 14 13a.5.5 0 0 0 0-1c-2.046 0-2.793-.947-3.566-3.638l-.102-.36C9.502 5.084 8.748 4 6.62 4 4.76 4 3.402 5.258 2.465 7.29a12.572 12.572 0 0 0-.75 2.15 12.994 12.994 0 0 0-.21.985.5.5 0 0 0 .99.15Z" fill="#333"/></symbol><symbol id="CategoriesIndicatorMomentumIcon" viewBox="0 0 16 16"><path d="M7.084 6.223a.5.5 0 0 1 .823-.014l5 7a.5.5 0 0 1-.814.582L7.514 7.38 5.916 9.776A.5.5 0 0 1 5.5 10h-3a.5.5 0 0 1 0-1h2.732l1.852-2.777ZM7.1 2.2a.5.5 0 0 1 .8 0l6 8a.5.5 0 0 1-.8.6L7.5 3.333 4.9 6.8a.5.5 0 0 1-.4.2h-2a.5.5 0 0 1 0-1h1.75L7.1 2.2Z" fill="#333"/></symbol><symbol id="CategoriesIndicatorOthersIcon" viewBox="0 0 16 16"><path d="M6.814 7.076a.5.5 0 0 1 .652.644l-2.5 6.46a.5.5 0 0 1-.932 0l-2.5-6.46a.5.5 0 0 1 .652-.644L4.5 8l2.314-.925ZM6.12 8.43l-1.433.573a.5.5 0 0 1-.372 0l-1.433-.573L4.5 12.615 6.12 8.43Zm4.91-6.6a.5.5 0 0 1 .942 0l2.5 7a.5.5 0 0 1-.67.628L11.5 8.465l-2.302.994a.5.5 0 0 1-.669-.627l2.5-7Zm.471 1.656L9.858 8.085l1.444-.624a.5.5 0 0 1 .396 0l1.444.624L11.5 3.487Z" fill="#333"/></symbol><symbol id="CategoriesIndicatorTrendIcon" viewBox="0 0 16 16"><path d="m4 2 2.073 6.166L8 6l2.38.41L12 2h1.5l.5.5v11l-.28.15L12 11.5l-1.5 1-2-3-2 2-.852-1.702L2.5 14l-.5-.5V2.46L2.52 2H4Z" fill="#D6DADB"/><path d="M4.5 2a.5.5 0 0 1 .488.392l1.193 5.367L8.1 5.2a.5.5 0 0 1 .54-.18l.084.033 1.442.721.849-3.395A.5.5 0 0 1 11.5 2h2a.5.5 0 1 1 0 1h-1.61l-.905 3.621a.5.5 0 0 1-.709.326L8.65 6.134l-2.184 2.91.325 1.458 1.355-1.356a.5.5 0 0 1 .77.077l1.723 2.584 1.084-.723a.5.5 0 0 1 .677.116l1.5 2a.5.5 0 0 1-.8.6l-1.216-1.622-1.107.738a.5.5 0 0 1-.693-.139l-1.662-2.492-1.568 1.569a.5.5 0 0 1-.842-.245l-.336-1.511L2.9 13.8a.5.5 0 0 1-.623.147L2.2 13.9a.5.5 0 0 1-.1-.7l3.29-4.387L4.099 3H2.5a.5.5 0 0 1 0-1h2Z" fill="#333"/></symbol><symbol id="CategoriesIndicatorVolatilityIcon" viewBox="0 0 16 16"><path d="M3.5 13a.5.5 0 0 1 .5.5l-.008.09A.5.5 0 0 1 3.5 14h-1a.5.5 0 0 1 0-1h1Zm2 0a.5.5 0 0 1 .5.5l-.008.09A.5.5 0 0 1 5.5 14h-1a.5.5 0 0 1 0-1h1Zm2 0a.5.5 0 0 1 .5.5l-.008.09A.5.5 0 0 1 7.5 14h-1a.5.5 0 0 1 0-1h1Zm2 0a.5.5 0 0 1 .5.5l-.008.09A.5.5 0 0 1 9.5 14h-1a.5.5 0 0 1 0-1h1Zm2 0a.5.5 0 0 1 .5.5l-.008.09a.5.5 0 0 1-.492.41h-1a.5.5 0 0 1 0-1h1Zm2 0a.5.5 0 1 1 0 1h-1a.5.5 0 0 1 0-1h1ZM9.071 4.243a.5.5 0 0 1 .876.033l1.615 3.23 1.522-2.283a.5.5 0 0 1 .832.554l-2 3a.5.5 0 0 1-.863-.053L9.46 5.538 6.93 9.758a.5.5 0 0 1-.782.096l-1.51-1.51-1.69 3.38a.5.5 0 1 1-.894-.448l2-4a.5.5 0 0 1 .8-.13l1.548 1.548 2.67-4.451ZM3.501 2a.5.5 0 0 1 .5.5l-.009.09A.5.5 0 0 1 3.5 3h-1a.5.5 0 0 1 0-1h1Zm2 0a.5.5 0 0 1 .5.5l-.009.09A.5.5 0 0 1 5.5 3h-1a.5.5 0 0 1 0-1h1Zm2 0a.5.5 0 0 1 .5.5l-.009.09A.5.5 0 0 1 7.5 3h-1a.5.5 0 0 1 0-1h1Zm2 0a.5.5 0 0 1 .5.5l-.009.09A.5.5 0 0 1 9.5 3h-1a.5.5 0 0 1 0-1h1Zm2 0a.5.5 0 0 1 .5.5l-.009.09A.5.5 0 0 1 11.5 3h-1a.5.5 0 0 1 0-1h1Zm2 0a.5.5 0 1 1 0 1h-1a.5.5 0 0 1 0-1h1Z" fill="#333"/></symbol><symbol id="StatusFinishIcon" viewBox="0 0 16 16"><g clip-path="url(#a)"><path d="M1 0h14a1 1 0 0 1 1 1v12a1 1 0 0 1-1 1h-5l-2 2-2-2H1a1 1 0 0 1-1-1V1a1 1 0 0 1 1-1Z" fill="#4BB4B3"/><path d="M3.5 1a.5.5 0 0 1 .5.5V2h9a1 1 0 0 1 1 1v6a1 1 0 0 1-1 1H4v2.5a.5.5 0 0 1-1 0v-11a.5.5 0 0 1 .5-.5ZM13 7h-2v2h2V7ZM9 7H7v2h2V7Zm2-2H9v2h2V5ZM7 5H5v2h2V5Zm2-2H7v2h2V3Zm4 0h-2v2h2V3Z" fill="#fff"/></g></symbol><symbol id="StatusSettlementIcon" viewBox="0 0 16 16"><rect width="16" height="16" rx="8" fill="#FFAD3A"/><path d="M8 7a1 1 0 1 1 0 2 1 1 0 0 1 0-2ZM4 7a1 1 0 1 1 0 2 1 1 0 0 1 0-2Zm8 0a1 1 0 1 1 0 2 1 1 0 0 1 0-2Z" fill="#fff"/></symbol><symbol id="StatusLossCircleIcon" viewBox="0 0 16 16"><rect width="16" height="16" rx="8" fill="#EC3F3F"/><path d="M8 11 4 7h8l-4 4Z" fill="#fff"/></symbol><symbol id="StatusLossIcon" viewBox="0 0 16 16"><path d="m8 12 6-8H2l6 8Z" fill="#EC3F3F"/></symbol><symbol id="StatusProfitCircleIcon" viewBox="0 0 16 16"><rect width="16" height="16" rx="8" fill="#4BB4B3"/><path d="M8 5 4 9h8L8 5Z" fill="#fff"/></symbol><symbol id="StatusProfitIcon" viewBox="0 0 16 16"><path d="m8 4 6 8H2l6-8Z" fill="#4BB4B3"/></symbol><symbol id="StatusCrossCircleIcon" viewBox="0 0 16 16"><rect width="16" height="16" rx="8" fill="#EC3F3F"/><path fill-rule="evenodd" clip-rule="evenodd" d="M5.146 5.146a.5.5 0 0 1 .708 0L8 7.293l2.146-2.147a.5.5 0 0 1 .638-.057l.07.057a.5.5 0 0 1 0 .708L8.707 8l2.147 2.146a.5.5 0 0 1 .057.638l-.057.07a.5.5 0 0 1-.708 0L8 8.707l-2.146 2.147a.5.5 0 0 1-.638.057l-.07-.057a.5.5 0 0 1 0-.708L7.293 8 5.146 5.854a.5.5 0 0 1-.057-.638l.057-.07Z" fill="#fff"/></symbol><symbol id="StatusWonIcon" viewBox="0 0 16 16"><rect width="16" height="16" rx="8" fill="#4BB4B3"/><path fill-rule="evenodd" clip-rule="evenodd" d="M11.146 5.146a.5.5 0 0 1 .708.708l-5 5a.5.5 0 0 1-.708 0l-2-2a.5.5 0 1 1 .708-.708L6.5 9.793l4.646-4.647Z" fill="#fff"/></symbol><symbol id="IndicatorsAwesomeOscillatorIcon" viewBox="0 0 24 24"><path d="M9 6.76V22H6V6.76h3ZM13.5 2v20h-3V2h3ZM5 11.52V22H2V11.52h3Z" fill="#85ACB0"/><path d="M18 4.86V22h-3V4.86h3Zm4 5.71V22h-3V10.57h3Z" fill="#FF444F"/></symbol><symbol id="IndicatorsDtrendedIcon" viewBox="0 0 24 24"><path d="m5.38 8.64 1.65 6.603c.216.864 1.37 1.036 1.828.272l1.881-3.136 2.312 6.937c.304.912 1.594.912 1.898 0l2.396-7.189L19.2 14.6c.55.733 1.713.403 1.796-.51l1-11a1 1 0 0 0-1.992-.18l-.764 8.41L17.8 9.4a1 1 0 0 0-1.749.284l-2.05 6.154-2.052-6.154a1 1 0 0 0-1.806-.198l-1.758 2.93L5.97 2.758c-.27-1.082-1.84-.977-1.964.132l-2 18a1 1 0 1 0 1.988.22L5.379 8.64Z" fill="#85ACB0"/></symbol><symbol id="IndicatorsGatorIcon" viewBox="0 0 24 24"><path d="M2 22v-8.57h3V7.71h3V2h3v3.81h3V22H2Z" fill="#85ACB0"/><path d="M14 22V8.67h3v4.76h3v2.859h2V22h-8Z" fill="#FF444F"/></symbol><symbol id="IndicatorsMacdIcon" viewBox="0 0 24 24"><path d="M6 19v3H3v-3h3Zm8-3v3h-3v-3h3Zm4-4v6h-3v-6h3Zm3-10a1 1 0 1 1 0 2h-4.616l-9.715 8.743A1 1 0 0 1 6 13H3a1 1 0 1 1 0-2h2.616l9.715-8.743A1 1 0 0 1 16 2h5Z" fill="#85ACB0"/><path d="M10 18v2H7v-2h3ZM21 5a1 1 0 1 1 0 2h-2.613L7.673 16.74A1 1 0 0 1 7 17H3a1 1 0 1 1 0-2h3.613l10.714-9.74A1 1 0 0 1 18 5h3Zm1 3v9h-3V8h3Z" fill="#FF444F"/></symbol><symbol id="IndicatorsRateOfChangeIcon" viewBox="0 0 24 24"><path d="M3 9h18a1 1 0 1 0 0-2H3a1 1 0 0 0 0 2Z" fill="#D6DADB"/><path d="m7.349 6.066 2.666 15.108c.185 1.049 1.663 1.12 1.948.094L16.34 5.51l1.802 3.004A1 1 0 0 0 19 9h2a1 1 0 1 0 0-2h-1.434l-2.708-4.514c-.453-.753-1.586-.6-1.822.247L11.219 16.48 8.985 3.826a1 1 0 0 0-1.692-.533L3.586 7H3a1 1 0 1 0 0 2h1a1 1 0 0 0 .707-.293L7.35 6.065Z" fill="#85ACB0"/></symbol><symbol id="IndicatorsRsiIcon" viewBox="0 0 24 24"><path d="m8.236 4 2.8 10.263A1 1 0 0 0 12 15h5.34l2.74 6.394a1 1 0 1 0 1.84-.788l-3-7A1 1 0 0 0 18 13h-5.236l-2.8-10.263A1 1 0 0 0 9 2H3a1 1 0 0 0 0 2h5.236Z" fill="#85ACB0"/><path d="M6 6a1 1 0 0 1 0 2H3a1 1 0 0 1 0-2h3Zm15 0a1 1 0 1 1 0 2h-7a1 1 0 1 1 0-2h7Z" fill="#D6DADB"/><path d="M3 20h13a1 1 0 1 0 0-2H3a1 1 0 1 0 0 2Z" fill="#FF444F"/></symbol><symbol id="IndicatorsStochasticMomentumIcon" viewBox="0 0 24 24"><path d="M21 18a1 1 0 1 1 0 2H3a1 1 0 1 1 0-2h18Zm0-14a1 1 0 1 1 0 2H3a1 1 0 0 1 0-2h18Z" fill="#D6DADB"/><path d="M10.72 18.628c-.218-1.087-.35-2.356-.56-5.006l-.068-.848a238.07 238.07 0 0 0-.069-.857C9.431 4.752 8.68 1.91 5.967 2c-2.662.089-3.57 2.95-3.542 7.505a42.31 42.31 0 0 0 .294 4.512 49.541 49.541 0 0 0 .295 2.151 1 1 0 0 0 1.972-.337 47.533 47.533 0 0 1-.28-2.042 40.374 40.374 0 0 1-.281-4.296C4.404 6.028 5.037 4.033 6.033 4c.85-.028 1.543 2.6 1.997 8.083a256.949 256.949 0 0 1 .136 1.698c.216 2.735.354 4.046.592 5.239.387 1.938.975 3.022 2.274 2.98 1.193-.038 1.909-.902 2.336-2.293.264-.859.392-1.662.625-3.586.36-2.982.708-4.11 1.04-4.12.044-.002.055.003.102.052.105.111.221.328.33.65.21.618.328 1.297.544 2.928.234 1.778.363 2.518.632 3.31.441 1.3 1.197 2.097 2.391 2.06 2.078-.068 2.792-2.583 3.015-6.95.084-1.643.073-3.39.005-5.053a54.138 54.138 0 0 0-.054-1.064 1 1 0 0 0-1.996.134c.013.188.032.538.052 1.012a54.084 54.084 0 0 1-.004 4.87c-.157 3.066-.718 5.04-1.082 5.051-.045.002-.056-.003-.103-.053-.105-.11-.221-.328-.33-.65-.21-.618-.328-1.297-.544-2.928-.234-1.778-.363-2.518-.632-3.31-.441-1.3-1.197-2.097-2.391-2.059-1.193.038-1.909.903-2.336 2.293-.264.859-.392 1.662-.625 3.586-.31 2.56-.61 3.754-.898 4.047-.136-.26-.27-.698-.39-1.298Z" fill="#FF444F"/><path d="M3.962 14.275a21.967 21.967 0 0 1 .34-1.032c.28-.785.604-1.57.967-2.296C6.204 9.08 7.205 8 8 8c.488 0 .907.943 1.524 3.717C10.408 15.693 10.988 17 13 17c2.32 0 3.148-1.182 3.37-3.4l.028-.295C16.51 12.098 16.561 12 17 12c.742 0 .798.056 1.051.816C18.548 14.306 19.241 15 21 15a1 1 0 1 0 0-2c-.742 0-.798-.056-1.051-.816C19.452 10.694 18.759 10 17 10c-1.883 0-2.395.985-2.593 3.12l-.027.28c-.132 1.323-.326 1.6-1.38 1.6-.488 0-.907-.943-1.524-3.717C10.593 7.307 10.012 6 8 6c-1.83 0-3.266 1.546-4.52 4.053a22.847 22.847 0 0 0-1.062 2.517 24 24 0 0 0-.38 1.155 1 1 0 1 0 1.924.55Z" fill="#85ACB0"/></symbol><symbol id="IndicatorsStochasticOscillatorIcon" viewBox="0 0 24 24"><path d="M20.2 15.6a1 1 0 1 0 1.6-1.2l-9-12a1 1 0 0 0-1.507-.107L7.586 6H3a1 1 0 0 0 0 2h5a1 1 0 0 0 .707-.293l3.185-3.185L20.2 15.6Z" fill="#85ACB0"/><path d="M20.2 21.6a1 1 0 1 0 1.6-1.2l-9-12a1 1 0 0 0-1.507-.107L7.586 12H3a1 1 0 1 0 0 2h5a1 1 0 0 0 .707-.293l3.185-3.185L20.2 21.6Z" fill="#FF444F"/><path d="M14 17a1 1 0 1 1 0 2H3a1 1 0 1 1 0-2h11ZM7 2a1 1 0 0 1 0 2H3a1 1 0 0 1 0-2h4Zm14 0a1 1 0 1 1 0 2h-4a1 1 0 1 1 0-2h4Z" fill="#D6DADB"/></symbol><symbol id="IndicatorsWilliamPercentIcon" viewBox="0 0 24 24"><path d="M3 5h4a1 1 0 0 0 0-2H3a1 1 0 0 0 0 2Z" fill="#FF444F"/><path d="M10.037 2.732c.268-.966 1.633-.98 1.92-.02l2.35 7.833 1.766-2.94a1 1 0 0 1 1.745.056l4.07 7.88a1 1 0 0 1-1.777.918l-3.247-6.287-2.007 3.343c-.447.744-1.565.604-1.815-.228l-2.005-6.684-4.074 14.665c-.277.999-1.704.967-1.937-.043l-3-13a1 1 0 1 1 1.948-.45l2.116 9.166 3.947-14.209ZM21 19a1 1 0 1 1 0 2H10a1 1 0 1 1 0-2h11Z" fill="#85ACB0"/></symbol><symbol id="IndicatorsAdxIcon" viewBox="0 0 24 24"><path d="M20.419 15.186a1 1 0 1 1 1.162 1.628l-7 5a1 1 0 0 1-1.221-.046L8.06 17.353l-4.354 4.354a1 1 0 0 1-1.414-1.414l5-5a1 1 0 0 1 1.347-.061l5.407 4.506 6.372-4.552ZM7.293 2.293a1 1 0 0 1 1.466.056l5.297 6.18 6.237-6.236a1 1 0 1 1 1.414 1.414l-7 7a1 1 0 0 1-1.466-.056L7.944 4.47 3.707 8.707a1 1 0 1 1-1.414-1.414l5-5Z" fill="#85ACB0"/><path d="M3 14h18a1 1 0 1 0 0-2H3a1 1 0 1 0 0 2Z" fill="#D6DADB"/></symbol><symbol id="IndicatorsAroonIcon" viewBox="0 0 24 24"><path d="m12.752 8.654 3.168 2.376a1 1 0 0 0 1.45-.273l4.48-7.23a1 1 0 1 0-1.7-1.054l-3.904 6.301L13.12 6.43a1 1 0 0 0-1.422.231l-9.52 13.77a1 1 0 1 0 1.645 1.138l8.929-12.915Z" fill="#85ACB0"/><path d="m5.845 7.57 9.323 13.985a1 1 0 0 0 1.54.152l5-5a1 1 0 0 0-1.415-1.414l-4.138 4.137L6.832 5.445a1 1 0 0 0-1.54-.152l-3 3a1 1 0 0 0 1.415 1.414L5.845 7.57Z" fill="#FF444F"/></symbol><symbol id="IndicatorsCommodityChannelIndexIcon" viewBox="0 0 24 24"><path d="M16.126 2.514a1 1 0 0 1 1.742-.01l4 7a1 1 0 1 1-1.736.992l-3.12-5.459-9.138 16.449a1 1 0 0 1-1.655.139l-4-5a1 1 0 0 1 1.562-1.25l3.069 3.836 9.276-16.697ZM12.75 3a1 1 0 1 1 0 2H3a1 1 0 1 1 0-2h9.75Z" fill="#85ACB0"/><path d="M21 19h-9.75a1 1 0 1 0 0 2H21a1 1 0 1 0 0-2Z" fill="#FF444F"/></symbol><symbol id="IndicatorsIchimokuIcon" viewBox="0 0 24 24"><path opacity=".31" d="M6.97 6.87 4.5 3H3L2 4v17l1.35.5 6.14-8.15-2.52-6.48Z" fill="#FF444F"/><path opacity=".3" d="m19.5 3-1.15 5h-3.1L13 13l-3.02-.25-.49.6 1.41 6.04 3.1-3.12L17 20l2.43-.61 1.32 2.11L22 21V3h-2.5Z" fill="#85ACB0"/><path d="m5.465 5 1.607 2.41 2.958 11.832a1 1 0 0 0 1.677.465l2.185-2.185L16.2 20.6a1 1 0 0 0 1.247.294l1.355-.677 1.49 1.49a1 1 0 0 0 1.415-1.414l-2-2a1 1 0 0 0-1.154-.187l-1.254.626L14.8 15.4a1 1 0 0 0-1.507-.107l-1.751 1.751L8.97 6.757a1 1 0 0 0-.138-.312l-2-3A1 1 0 0 0 6 3H3a1 1 0 0 0 0 2h2.465Z" fill="#FF444F"/><path d="m10.095 13.458 2.716.524a1 1 0 0 0 1.117-.61L15.678 9H18a1 1 0 0 0 .98-.804L19.82 4H21a1 1 0 1 0 0-2h-2a1 1 0 0 0-.98.804L17.18 7H15a1 1 0 0 0-.928.629l-1.694 4.233-2.509-.484a1 1 0 0 0-.98.37l-6.68 8.64a1 1 0 0 0 1.582 1.224l6.304-8.154Z" fill="#85ACB0"/></symbol><symbol id="IndicatorsParabolicIcon" viewBox="0 0 24 24"><path d="m9.976 17.652 2.122 2.121-2.122 2.121-2.12-2.121 2.12-2.121Zm3.18-3.188 2.122 2.122-2.122 2.121-2.12-2.121 2.12-2.121Zm3.18-3.177 2.122 2.122-2.122 2.12-2.12-2.12 2.12-2.122Zm-5.157-.726 2.122 2.121-2.122 2.121-2.121-2.121 2.121-2.121Zm8.347-2.45 2.122 2.12-2.122 2.122-2.12-2.122 2.12-2.12ZM8 7.382l2.122 2.122-2.122 2.121-2.121-2.121 2.121-2.122ZM4.82 4.196l2.122 2.122-2.122 2.12-2.121-2.12 2.121-2.122Z" fill="#85ACB0"/></symbol><symbol id="IndicatorsZigZagIcon" viewBox="0 0 24 24"><path d="m5.064 2.65-3 8a1 1 0 1 0 1.872.701l3-8a1 1 0 0 0-1.872-.702Z" fill="#FF444F"/><path d="m18.832 20.445-12-18a1 1 0 1 0-1.664 1.11l12 18a1 1 0 0 0 1.664-1.11Z" fill="#85ACB0"/><path d="m20.142 15.486-3 5a1 1 0 1 0 1.715 1.029l3-5a1 1 0 1 0-1.715-1.03Z" fill="#FF444F"/></symbol><symbol id="IndicatorsBollingerIcon" viewBox="0 0 24 24"><path d="M3.415 7.91A21.19 21.19 0 0 1 12.009 6c2.948.028 5.877.678 8.576 1.91a1 1 0 0 0 .83-1.82A23.19 23.19 0 0 0 12.009 4c-3.265.03-6.47.743-9.424 2.09a1 1 0 0 0 .83 1.82Z" fill="#85ACB0"/><path d="M3.415 13.91A21.19 21.19 0 0 1 12.009 12c2.948.028 5.877.678 8.576 1.91a1 1 0 0 0 .83-1.82A23.19 23.19 0 0 0 12.009 10c-3.265.03-6.47.743-9.424 2.09a1 1 0 0 0 .83 1.82Z" fill="#FF444F"/><path d="M3.415 19.91A21.19 21.19 0 0 1 12.009 18c2.948.028 5.877.678 8.576 1.91a1 1 0 0 0 .83-1.82A23.19 23.19 0 0 0 12.009 16c-3.265.03-6.47.743-9.424 2.09a1 1 0 0 0 .83 1.82Z" fill="#FF6444"/></symbol><symbol id="IndicatorsDonchianIcon" viewBox="0 0 24 24"><path d="M5.78 9h2.424l2.822 12.225A1 1 0 0 0 12 22h4a1 1 0 0 0 .992-.876l1.944-15.546 2.619-1.746a1 1 0 0 0-1.11-1.664l-3 2a1 1 0 0 0-.437.708L15.118 20h-2.322L9.974 7.775A1 1 0 0 0 9 7H5a1 1 0 0 0-.97.758l-2 8a1 1 0 1 0 1.94.485L5.78 9Z" fill="#85ACB0"/></symbol><symbol id="IndicatorsAveragesIcon" viewBox="0 0 24 24"><path d="M2.072 13.371c.187.47.551 1.125 1.122 1.784C4.182 16.295 5.452 17 7 17c2.297 0 3.392-1.296 5.382-5.03C13.992 8.955 14.797 8 16 8c1.388 0 2.419.87 3.175 2.435.284.589.504 1.229.664 1.87.096.383.15.675.17.827a1 1 0 1 0 1.982-.264 10.04 10.04 0 0 0-.212-1.048 11.729 11.729 0 0 0-.804-2.255C19.92 7.379 18.287 6 16 6c-2.297 0-3.391 1.296-5.382 5.03C9.008 14.046 8.203 15 7 15c-.902 0-1.657-.42-2.294-1.155a5.12 5.12 0 0 1-.778-1.216 1 1 0 1 0-1.856.742Z" fill="#85ACB0"/></symbol><symbol id="IndicatorsEnvelopeIcon" viewBox="0 0 24 24"><path d="M2 16.027c.08 2.866 2.681 4.031 5.387 2.895.552-.23.974-.493 1.702-1.012l.292-.207c1.051-.743 1.584-.93 2.377-.733.713.178 1.182.567 2.194 1.71l.01.012c.389.438.572.638.814.878 1.579 1.734 3.93 2.646 6.316 2.425a1 1 0 0 0-.184-1.991 5.64 5.64 0 0 1-4.689-1.818c-.237-.236-.4-.415-.76-.82l-.01-.013c-1.274-1.438-1.968-2.014-3.207-2.324-1.495-.372-2.533-.006-4.014 1.04l-.3.212c-.611.436-.937.639-1.313.796-1.537.645-2.58.178-2.615-1.105a1 1 0 0 0-2 .055Z" fill="#FF6444"/><path d="M2 3.027C2.08 5.93 4.68 7.086 7.395 5.92c.688-.29 1.136-.664 1.96-1.504l.1-.102c.884-.901 1.272-1.136 1.846-1.061 1.226.158 1.955.782 3.3 2.566l.158.208c.193.255.321.423.456.594C16.95 8.816 18.701 10 21 10a1 1 0 0 0 0-2c-1.556 0-2.822-.856-4.215-2.62a31.143 31.143 0 0 1-.43-.56l-.157-.207c-1.652-2.189-2.71-3.096-4.64-3.345-1.4-.182-2.235.324-3.531 1.644l-.1.103c-.639.651-.948.909-1.315 1.063-1.547.665-2.577.208-2.612-1.105a1 1 0 1 0-2 .054Z" fill="#85ACB0"/><path d="M2 9.026c.079 2.997 2.644 4.156 5.417 2.883.544-.25.994-.598 1.664-1.217l.262-.243c1.202-1.121 1.675-1.364 2.274-1.115.433.176.832.581 1.395 1.379l.162.232.165.237c.138.2.238.34.34.477.206.27 1.108 1.486 1.355 1.8 1.467 1.867 2.89 2.803 5.723 3.511a1 1 0 1 0 .485-1.94c-2.398-.6-3.44-1.285-4.636-2.806-.225-.287-1.117-1.491-1.333-1.773a62.26 62.26 0 0 1-.627-.892c-.77-1.09-1.386-1.717-2.27-2.075-1.605-.666-2.643-.134-4.397 1.502l-.255.237c-.523.483-.846.733-1.142.869-1.58.725-2.546.289-2.582-1.118a1 1 0 0 0-2 .052Z" fill="#FF444F"/></symbol><symbol id="IndicatorsRainbowIcon" viewBox="0 0 24 24"><path d="M7.318 1.446a1 1 0 0 1 1.7.058l.055.111 7.505 17.996 5.665 1.42a1 1 0 0 1 .749 1.097l-.022.115a1 1 0 0 1-1.098.749l-.115-.022-6.15-1.54a1 1 0 0 1-.628-.48l-.052-.105-6.98-16.737-5.115 7.677a1 1 0 0 1-1.286.336l-.1-.059a1 1 0 0 1-.337-1.286l.059-.1 6.15-9.23Z" fill="#FF1D25"/><path d="M7.32 3.043a1 1 0 0 1 1.66 0l.064.108 7.493 14.909 5.706 1.43a1 1 0 0 1 .749 1.098l-.022.115a1 1 0 0 1-1.098.748l-.115-.021-6.15-1.54a1 1 0 0 1-.588-.414l-.062-.107-6.932-13.79-5.194 7.748a1 1 0 0 1-1.287.332l-.1-.059a1 1 0 0 1-.334-1.287l.06-.1 6.15-9.17Z" fill="#F7931E"/><path d="M7.32 3.043a1 1 0 0 1 1.633-.04l.07.11 7.55 13.52 5.874 2.932a1 1 0 0 1 .494 1.234l-.046.107a1 1 0 0 1-1.234.494l-.108-.046-6.15-3.07a1 1 0 0 1-.361-.306l-.065-.1L8.071 5.51l-5.24 7.816a1 1 0 0 1-1.287.332l-.1-.059a1 1 0 0 1-.334-1.287l.06-.1 6.15-9.17Z" fill="#F7931E"/><path d="M7.37 4.456a1 1 0 0 1 1.554-.01l.074.104 7.55 12.071 5.899 2.944a1 1 0 0 1 .494 1.234l-.046.108a1 1 0 0 1-1.234.494l-.108-.046-6.15-3.07a1.001 1.001 0 0 1-.32-.253l-.08-.112L8.048 6.805l-5.268 6.59a1 1 0 0 1-1.303.228l-.103-.072a1 1 0 0 1-.228-1.303l.072-.102 6.15-7.69Z" fill="#F7931E"/><path d="M7.37 5.996a1 1 0 0 1 1.463-.107l.085.09 7.565 9.07 5.964 2.976a1 1 0 0 1 .494 1.234l-.046.108a1 1 0 0 1-1.234.494l-.108-.046-6.15-3.07a1 1 0 0 1-.226-.155l-.095-.1L8.166 8.2l-5.385 6.735a1 1 0 0 1-1.303.228l-.103-.072a1 1 0 0 1-.228-1.303l.072-.103 6.15-7.69Z" fill="#FFC200"/><path d="M7.442 7.444a1 1 0 0 1 1.23-.147l.103.073 7.675 6.14 6.15 4.61a1 1 0 0 1-1.095 1.67l-.105-.07-6.175-4.629-7.001-5.6-5.516 5.526a1 1 0 0 1-1.32.084l-.095-.083a1 1 0 0 1-.084-1.32l.083-.094 6.15-6.16Z" fill="#FFC200"/><path d="M7.442 8.984a1 1 0 0 1 .954-.263l.125.041 7.7 3.08a.997.997 0 0 1 .157.08l.073.049 6.15 4.62a1 1 0 0 1-1.097 1.668l-.105-.069-6.044-4.54-6.964-2.787-5.683 5.694a1 1 0 0 1-1.32.084l-.095-.083a1 1 0 0 1-.084-1.32l.083-.094 6.15-6.16Z" fill="#8CC63F"/><path d="M15.85 10.23a1 1 0 0 1 .609.207l.099.087 6.15 6.16a1 1 0 0 1-1.321 1.496l-.095-.083-5.856-5.867H8.482l-5.881 4.42a1 1 0 0 1-1.319-.103l-.081-.096a1 1 0 0 1 .103-1.319l.095-.081 6.15-4.62a1 1 0 0 1 .472-.192l.13-.009h7.7Z" fill="#8CC63F"/><path d="M15.479 8.762a1 1 0 0 1 .98.135l.099.087 6.15 6.16a1 1 0 0 1-1.321 1.496l-.095-.083-5.684-5.693-6.964 2.785-6.043 4.541a1 1 0 0 1-1.319-.103l-.081-.096a1 1 0 0 1 .103-1.319l.095-.081 6.15-4.62a1 1 0 0 1 .15-.093l.08-.036 7.7-3.08Z" fill="#00B9F9"/><path d="M15.225 7.37a1 1 0 0 1 1.322.063l.084.093 6.15 7.7a1 1 0 0 1-1.478 1.342l-.084-.094-5.527-6.919-6.917 5.536-.177.114-6.15 3.08a1 1 0 0 1-.997-1.73l.101-.059 6.058-3.035 7.615-6.091Z" fill="#00B9F9"/><path d="M15.082 5.98a1 1 0 0 1 1.465-.077l.084.093 6.15 7.69a1 1 0 0 1-1.478 1.342l-.084-.093L15.833 8.2l-6.915 8.29a.997.997 0 0 1-.203.185l-.118.07-6.15 3.07a1 1 0 0 1-.995-1.732l.101-.058 5.963-2.977 7.566-9.068Z" fill="#0071BC"/><path d="M15.143 7.443a1 1 0 0 1 1.32-.082l.095.083 6.15 6.16a1 1 0 0 1-1.322 1.496l-.094-.083-5.443-5.452-6.992 6.993a1 1 0 0 1-.167.134l-.093.053-6.15 3.07a1 1 0 0 1-.995-1.731l.101-.058 6.002-2.997 7.588-7.586Z" fill="#0071BC"/><path d="M15.002 4.55a1 1 0 0 1 1.544-.189l.085.095 6.15 7.69a1 1 0 0 1-1.478 1.342l-.084-.093-5.269-6.59L8.998 17.92a.999.999 0 0 1-.283.295l-.118.07-6.15 3.07a1 1 0 0 1-.995-1.732l.101-.058 5.898-2.944L15.002 4.55Z" fill="#662D91"/><path d="M14.956 3.092a1 1 0 0 1 1.59-.27l.085.094 6.15 7.69a1 1 0 0 1-1.478 1.342l-.084-.093-5.174-6.47-7 13.983a1 1 0 0 1-.336.381l-.111.065-6.15 3.08a1 1 0 0 1-.997-1.73l.101-.058 5.852-2.932 7.552-15.082Z" fill="#C105C6"/></symbol><symbol id="IndicatorsAlligatorIcon" viewBox="0 0 24 24"><path d="M20.19 2.415a1 1 0 1 1 1.62 1.17l-7.393 10.237 3.86 5.791 2.168-1.445a1 1 0 0 1 1.11 1.664l-3 2a1 1 0 0 1-1.387-.277l-4.001-6.003-4.356 6.034a1 1 0 0 1-1.26.308l-.106-.062-2.318-1.545-1.42 1.42a1 1 0 0 1-1.414-1.414l2-2a1 1 0 0 1 1.262-.125l2.198 1.466 4.23-5.858-6.031-9.045L3.8 7.6a1 1 0 1 1-1.6-1.2l3-4a1 1 0 0 1 1.632.044l6.401 9.601 6.956-9.631Z" fill="#85ACB0"/><path d="m6.27 12.144 11.414 3.805A1 1 0 0 0 18.8 15.6l3-4a1 1 0 1 0-1.6-1.2l-2.567 3.423-11.317-3.772a1 1 0 0 0-1.023.242l-3 3a1 1 0 1 0 1.414 1.414l2.563-2.563Z" fill="#FF444F"/></symbol><symbol id="IndicatorsFractalChaosIcon" viewBox="0 0 24 24"><path d="m17 2-5 11 5-1.62L22 13 17 2Z" fill="#85ACB0"/><path d="m7 22 5-11-5 1.62L2 11l5 11Z" fill="#FF444F"/></symbol><symbol id="DrawingsChannelIcon" viewBox="0 0 24 24"><path d="M20.732 11.037a1 1 0 0 1 .536 1.927l-18 5a1 1 0 0 1-.536-1.927l18-5Zm-3.026-5.993a1 1 0 1 1 .588 1.912l-13 4a1 1 0 1 1-.588-1.912l13-4Z" fill="#85ACB0"/></symbol><symbol id="DrawingsContinuousIcon" viewBox="0 0 24 24"><path d="m11.646 13.225 6.08 1.737a1 1 0 0 0 1.239-.699l3-11a1 1 0 1 0-1.93-.526l-2.733 10.024-6.027-1.722a1 1 0 0 0-1.224.645l-2.379 7.137-3.858-5.402a1 1 0 0 0-1.628 1.162l5 7a1 1 0 0 0 1.763-.264l2.697-8.092Z" fill="#85ACB0"/></symbol><symbol id="DrawingsFibonacciFanIcon" viewBox="0 0 24 24"><path d="M5.618 20.727a.38.38 0 0 1-.168.473l-.93.37-.14.02a.37.37 0 0 1-.14-.72l.93-.37a.38.38 0 0 1 .448.227Zm-.854-1.192a.38.38 0 0 1 .31.434.37.37 0 0 1-.154.241l-.8.58a.34.34 0 0 1-.22.07.37.37 0 0 1-.3-.15.39.39 0 0 1 .08-.53l.8-.58a.38.38 0 0 1 .284-.065Zm2.79.11c.09.04.16.114.196.205a.37.37 0 0 1-.21.49l-.93.36a.35.35 0 0 1-.14.07.35.35 0 0 1-.34-.24.38.38 0 0 1 .21-.53l.93-.36a.37.37 0 0 1 .283.006Zm2.296-.525a.37.37 0 0 1-.21.48l-.93.37a.398.398 0 0 1-.15.03.41.41 0 0 1-.34-.24.38.38 0 0 1 .21-.49l.93-.36a.38.38 0 0 1 .49.21Zm-3.286-.885a.38.38 0 0 1 .31.434.37.37 0 0 1-.154.241l-.8.58a.34.34 0 0 1-.22.07.37.37 0 0 1-.3-.15.39.39 0 0 1 .08-.53l.8-.58a.38.38 0 0 1 .284-.065Zm5.329.08a.38.38 0 0 1-.163.465l-.93.37-.14.02a.38.38 0 0 1-.35-.24.37.37 0 0 1 .22-.48l.93-.37a.38.38 0 0 1 .433.235Zm2.147-.845a.39.39 0 0 1-.21.49l-.94.36a.318.318 0 0 1-.14-.02v.05a.37.37 0 0 1-.13-.72l.93-.37a.38.38 0 0 1 .49.21Zm-5.59-.5a.372.372 0 0 1 .07.64l-.8.58a.34.34 0 0 1-.22.07.37.37 0 0 1-.3-.15.38.38 0 0 1 .08-.53l.8-.57a.372.372 0 0 1 .37-.04Zm7.566-.474a.37.37 0 0 1-.096.634l-.93.37-.14.03a.41.41 0 0 1-.35-.24.39.39 0 0 1 .21-.49l.94-.36a.37.37 0 0 1 .366.056Zm-5.86-.814a.37.37 0 0 1 .244.148.36.36 0 0 1-.08.52l-.8.58a.36.36 0 0 1-.22.07.36.36 0 0 1-.3-.15.38.38 0 0 1 .08-.53l.8-.57a.37.37 0 0 1 .277-.068Zm8.074.148a.37.37 0 0 1-.22.48l-.93.37a.32.32 0 0 1-.14-.03v.05a.36.36 0 0 1-.34-.23.38.38 0 0 1 .21-.49l.93-.37a.38.38 0 0 1 .49.22Zm1.977-1.066a.38.38 0 0 1-.127.676l-.93.36-.15.03a.37.37 0 0 1-.34-.24.37.37 0 0 1 .21-.48l.93-.37a.38.38 0 0 1 .407.024ZM12.2 14.53a.372.372 0 0 1-.08.52l-.8.58a.359.359 0 0 1-.22.03v.04a.36.36 0 0 1-.3-.15.37.37 0 0 1 .08-.53l.8-.57a.372.372 0 0 1 .52.08Zm9.563-.155a.38.38 0 0 1-.163.465l-.36.14a.347.347 0 0 1-.11.02l-.03.01a.35.35 0 0 1-.34-.24.37.37 0 0 1 .21-.49l.36-.14a.38.38 0 0 1 .433.235Zm-8.006-1.293a.38.38 0 0 1 .163.678l-.8.57a.38.38 0 0 1-.22.03v.04a.39.39 0 0 1-.31-.15.37.37 0 0 1 .09-.52l.8-.58a.37.37 0 0 1 .277-.068Zm1.8-1.3a.37.37 0 0 1 .243.148.39.39 0 0 1-.08.53l-.8.57a.4.4 0 0 1-.22.04v.04a.4.4 0 0 1-.31-.16.37.37 0 0 1 .09-.52l.8-.58a.37.37 0 0 1 .277-.068Zm1.8-1.3a.37.37 0 0 1 .243.148.39.39 0 0 1-.08.53l-.8.57a.4.4 0 0 1-.22.04v.04a.4.4 0 0 1-.31-.16.37.37 0 0 1 .09-.52l.8-.58a.37.37 0 0 1 .277-.068ZM19.4 9.34a.373.373 0 0 1-.09.52l-.8.58a.409.409 0 0 1-.22.03v.04a.38.38 0 0 1-.364-.439.37.37 0 0 1 .154-.24l.8-.58a.373.373 0 0 1 .52.09Zm1.157-1.213a.36.36 0 0 1 .243.153.37.37 0 0 1-.08.52l-.41.3a.41.41 0 0 1-.22.07.38.38 0 0 1-.364-.439.37.37 0 0 1 .154-.24l.4-.29a.36.36 0 0 1 .277-.074Z" fill="#FF444F"/><path d="M6.024 2.783a1 1 0 0 1 1.952.434l-3.43 15.434L19.14 3.161a.5.5 0 1 1 .72.68L4.637 20H21a1 1 0 0 1 .993.884L22 21a1 1 0 0 1-1 1H3a1 1 0 0 1-.976-1.217l4-18Z" fill="#85ACB0"/></symbol><symbol id="DrawingsHorizontalIcon" viewBox="0 0 24 24"><path d="M21 13H3a1 1 0 1 1 0-2h18a1 1 0 1 1 0 2Z" fill="#85ACB0"/></symbol><symbol id="DrawingsLineIcon" viewBox="0 0 24 24"><path d="m3.707 21.707 18-18a1 1 0 0 0-1.414-1.414l-18 18a1 1 0 1 0 1.414 1.414Z" fill="#85ACB0"/></symbol><symbol id="DrawingsRayIcon" viewBox="0 0 24 24"><path d="M19.5 19.5a.5.5 0 0 1 .5.5v.5a.5.5 0 0 1-1 0V20a.5.5 0 0 1 .5-.5Zm0-2.5a.5.5 0 0 1 .5.5v.5a.5.5 0 0 1-1 0v-.5a.5.5 0 0 1 .5-.5Zm0-2.5a.5.5 0 0 1 .5.5v.5a.5.5 0 0 1-1 0V15a.5.5 0 0 1 .5-.5Zm0-2.5a.5.5 0 0 1 .5.5v.5a.5.5 0 0 1-1 0v-.5a.5.5 0 0 1 .5-.5Zm0-2.5a.5.5 0 0 1 .5.5v.5a.5.5 0 0 1-1 0V10a.5.5 0 0 1 .5-.5Zm0-2.5a.5.5 0 0 1 .5.5V8a.5.5 0 0 1-1 0v-.5a.5.5 0 0 1 .5-.5Zm0-2.5a.5.5 0 0 1 .492.41L20 5h.5a.5.5 0 0 1 0 1H20a.497.497 0 0 1-.25-.067A.5.5 0 0 1 19 5.5V5a.5.5 0 0 1 .5-.5ZM18 5a.5.5 0 0 1 0 1h-.5a.5.5 0 0 1 0-1h.5Zm-2.5 0a.5.5 0 0 1 0 1H15a.5.5 0 0 1 0-1h.5ZM13 5a.5.5 0 0 1 0 1h-.5a.5.5 0 0 1 0-1h.5Zm-2.5 0a.5.5 0 0 1 0 1H10a.5.5 0 0 1 0-1h.5ZM8 5a.5.5 0 0 1 0 1h-.5a.5.5 0 0 1 0-1H8ZM5.5 5a.5.5 0 0 1 0 1H5a.5.5 0 0 1 0-1h.5ZM3 5a.5.5 0 0 1 0 1h-.5a.5.5 0 0 1 0-1H3Zm16.5-3a.5.5 0 0 1 .5.5V3a.5.5 0 0 1-1 0v-.5a.5.5 0 0 1 .5-.5Z" fill="#85ACB0"/><path d="M4 21a1 1 0 0 1-.71-1.71l14-14a1.004 1.004 0 1 1 1.42 1.42l-14 14A1 1 0 0 1 4 21Z" fill="#FF444F"/></symbol><symbol id="DrawingsRectangleIcon" viewBox="0 0 24 24"><path d="M20 6v12H4V6h16Zm1-2H3a1 1 0 0 0-1 1v14a1 1 0 0 0 1 1h18a1 1 0 0 0 1-1V5a1 1 0 0 0-1-1Z" fill="#85ACB0"/></symbol><symbol id="DrawingsTrendIcon" viewBox="0 0 24 24"><path d="M12 2H2v2h4v8h2V4h4V2Z" fill="#FF444F"/><path d="m5.747 21.664 16-18a1 1 0 1 0-1.494-1.328l-16 18a1 1 0 0 0 1.494 1.328Z" fill="#85ACB0"/></symbol><symbol id="DrawingsVerticalIcon" viewBox="0 0 24 24"><path d="M12 22a1 1 0 0 1-1-1V3a1 1 0 1 1 2 0v18a1 1 0 0 1-1 1Z" fill="#85ACB0"/></symbol><symbol id="ChartTypesAreaIcon" viewBox="0 0 24 24"><g fill="#85ACB0"><path d="M2 15.49V22h20V4.31a1.24 1.24 0 0 0-2.13-.93L12 11.58l-2.77-2.9a1.22 1.22 0 0 0-1.84.08L2 15.49Z" fill-opacity=".3"/><path d="M20.74 3c.08 0 .26.09.26.37V21H3v-5.52l5.19-6.81a.19.19 0 0 1 .16-.09.17.17 0 0 1 .14.07l2.78 3.06a1 1 0 0 0 1.48 0l7.86-8.63c.07-.08.12-.08.13-.08Zm0-1a1.16 1.16 0 0 0-.87.4L12 11 9.23 8a1.17 1.17 0 0 0-.88-.4 1.19 1.19 0 0 0-1 .49L2 15.14V22h20V3.37A1.31 1.31 0 0 0 20.74 2Z"/></g></symbol><symbol id="ChartTypesCandleIcon" viewBox="0 0 24 24"><path d="M3 16a1 1 0 0 1-1-1V6a1 1 0 0 1 1-1h2V3a1 1 0 0 1 2 0v2h2a1 1 0 0 1 1 1v9a1 1 0 0 1-1 1H7v3a1 1 0 1 1-2 0v-3H3Z" fill="#85ACB0"/><path d="M18 2a1 1 0 0 1 1 1v4h2a1 1 0 0 1 1 1v10a1 1 0 0 1-1 1h-2v2a1 1 0 0 1-.883.993L18 22a1 1 0 0 1-1-1v-2h-2a1 1 0 0 1-1-1V8a1 1 0 0 1 1-1h2V3a1 1 0 0 1 1-1Z" fill="#FF444F"/></symbol><symbol id="ChartTypesHollowIcon" viewBox="0 0 24 24"><path d="M3 16a1 1 0 0 1-1-1V6a1 1 0 0 1 1-1h2V3a1 1 0 0 1 2 0v2h2a1 1 0 0 1 1 1v9a1 1 0 0 1-1 1H7v3a1 1 0 1 1-2 0v-3H3Zm5-9H4v7h4V7Z" fill="#85ACB0"/><path d="M18 2a1 1 0 0 1 1 1v4h2a1 1 0 0 1 1 1v10a1 1 0 0 1-1 1h-2v2a1 1 0 0 1-.883.993L18 22a1 1 0 0 1-1-1v-2h-2a1 1 0 0 1-.993-.883L14 18V8a1 1 0 0 1 1-1h2V3a1 1 0 0 1 1-1Zm2 7h-4v8h4V9Z" fill="#FF444F"/></symbol><symbol id="ChartTypesOhlcIcon" viewBox="0 0 24 24"><path d="M7 2a1 1 0 0 1 1 1v2h3a1 1 0 0 1 .993.883L12 6a1 1 0 0 1-1 1H8v12a1 1 0 0 1-.883.993L7 20a1 1 0 0 1-1-1v-5H3a1 1 0 0 1-.993-.883L2 13a1 1 0 0 1 1-1h3V3a1 1 0 0 1 .883-.993L7 2Z" fill="#85ACB0"/><path d="M17 5a1 1 0 0 1 1 1v12h3a1 1 0 0 1 .993.883L22 19a1 1 0 0 1-1 1h-3v1a1 1 0 0 1-.883.993L17 22a1 1 0 0 1-1-1v-9h-5a1 1 0 1 1 0-2h5V6a1 1 0 0 1 1-1Z" fill="#FF444F"/></symbol><symbol id="RoundPlaceholderIcon" viewBox="0 0 32 32"><rect width="32" height="32" rx="16" fill="#F2F3F4"/></symbol><symbol id="RoundEuroIcon" viewBox="0 0 32 32"><rect width="32" height="32" rx="15.989" fill="#283991"/><g fill="#F8D12E"><path d="m16.363 3.976-.39-1.2-.39 1.2h-1.264l1.022.743-.39 1.2 1.021-.742 1.022.743-.39-1.201 1.022-.743h-1.263ZM16.363 26.65l-.39-1.202-.39 1.201h-1.264l1.022.743-.39 1.2 1.021-.742 1.022.743-.39-1.201 1.022-.743h-1.263ZM22.195 4.785l.39 1.201h1.263l-1.022.743.39 1.2-1.021-.742-1.022.743.39-1.201-1.021-.743h1.263l.39-1.201ZM26.83 10.174l-.39-1.2-.39 1.2h-1.263l1.022.743-.39 1.2 1.021-.741 1.022.742-.39-1.201 1.022-.743H26.83ZM26.541 19.556l.39 1.201h1.264l-1.022.743.39 1.2-1.022-.741-1.021.742.39-1.201-1.022-.742h1.263l.39-1.202ZM6.048 10.174l-.39-1.2-.39 1.2H4.005l1.022.743-.39 1.2 1.021-.741 1.022.742-.39-1.201 1.021-.743H6.048ZM27.424 14.02l.39 1.201h1.264l-1.022.743.39 1.2-1.022-.741-1.022.742.391-1.201-1.022-.743h1.263l.39-1.2ZM5.083 15.221l-.39-1.2-.39 1.2H3.04l1.022.743-.39 1.2 1.021-.741 1.022.742-.39-1.201 1.021-.743H5.083ZM5.521 19.556l.39 1.201h1.263l-1.021.743.39 1.2-1.022-.741L4.5 22.7l.39-1.201-1.021-.742H5.13l.39-1.202ZM22.768 25.124l-.39-1.2-.39 1.2h-1.263l1.021.743-.39 1.201 1.022-.742 1.022.742-.39-1.201 1.021-.743h-1.263ZM9.952 4.785l.39 1.201h1.263l-1.022.743.39 1.2-1.021-.742-1.022.743.39-1.201-1.022-.743h1.263l.39-1.201ZM9.88 25.048l-.39-1.201-.39 1.201H7.837l1.022.742-.39 1.201 1.022-.742 1.021.742-.39-1.201 1.022-.742H9.881Z"/></g></symbol><symbol id="RoundAudIcon" viewBox="0 0 32 32"><rect width="32" height="32" rx="15.989" fill="#283991"/><g fill="#fff"><path d="m24.338 8.11-.612.762.638.753-.99-.177-.356.896-.327-.897-.97.153.637-.745-.613-.745.964.171.356-.915.328.915.945-.171ZM10.973 24.526l1.079-1.345-1.667.302-.578-1.614-.629 1.614-1.702-.302 1.082 1.316-1.123 1.314 1.711-.27.578 1.582.628-1.58 1.746.312-1.125-1.329ZM23.726 25.714l.612-.762-.945.171-.328-.915-.356.915-.964-.17.613.744-.636.745.97-.152.326.895.357-.895.989.177-.638-.753ZM27.684 13.229l.612-.762-.945.17-.327-.914-.357.915-.964-.171.613.745-.637.745.97-.153.327.896.356-.895.99.176-.638-.752ZM20.914 14.404l-.612.762.638.753-.99-.177-.355.895-.327-.896-.97.153.636-.745-.613-.745.964.171.356-.915.328.915.945-.171Z"/></g><g fill="#fff"><path d="M10.828.859c.262-.09.526-.172.795-.248v4.426L16 .66v.369L10.828 6.2V.859ZM2.643 7.194h1.715l-.998-.999c.053-.069.107-.138.162-.206l2 2h-3.37c.157-.27.32-.536.49-.795ZM16 14.524v.467l-3.483-3.483H16v.795H13.78L16 14.524ZM6.514 14.458v1.541h.795v-2.705l-2.706 2.705h.369l1.542-1.541ZM7.28 11.508H.645c-.077.262-.147.527-.21.795h3.923L.66 15.999H2.79l4.492-4.491ZM16 7.989v-.795h-2.223L16 4.97V2.843l-5.146 5.146H16ZM6.514 5.037 5.45 3.975c-.377.331-.739.68-1.083 1.045l2.146 2.146.022.023.773.773V2.569c-.27.175-.537.356-.795.547v1.921ZM13.164 16l-1.541-1.542V16h-.795v-4.366L15.195 16h-2.031Z"/></g><path d="m13.311 12.303-.794-.795H16v-3.52h-5.146l-.026.028v-.028h.026L16 2.843V1.03L10.828 6.2V.86a15.942 15.942 0 0 0-3.52 1.71V7.96l.028.027h-.028v-.027l-.772-.772.005.005h-.027v-.028L4.368 5.02c-.295.312-.577.635-.846.97l2 1.999h-3.37a15.88 15.88 0 0 0-1.508 3.519h6.637l.027-.028v.028h-.027l-.767.767v.028h-.028L2.789 16h1.814l2.706-2.705v2.705h3.519v-4.366l4.367 4.366h.6c.069-.071.138-.142.205-.216v-.792l-2.689-2.688Z" fill="#F44336"/></symbol><symbol id="RoundBtcIcon" viewBox="0 0 32 32"><rect width="32" height="32" rx="16" fill="#F7931A"/><path d="M23.189 14.02c.314-2.096-1.283-3.223-3.465-3.975l.708-2.84-1.728-.43-.69 2.765c-.454-.114-.92-.22-1.385-.326l.695-2.783L15.596 6l-.708 2.839c-.376-.086-.746-.17-1.104-.26l.002-.009-2.384-.595-.46 1.846s1.283.294 1.256.312c.7.175.826.638.805 1.006l-.806 3.235c.048.012.11.03.18.057l-.183-.045-1.13 4.532c-.086.212-.303.531-.793.41.018.025-1.256-.313-1.256-.313l-.858 1.978 2.25.561c.418.105.828.215 1.231.318l-.715 2.872 1.727.43.708-2.84c.472.127.93.245 1.378.357l-.706 2.828 1.728.43.715-2.866c2.948.558 5.164.333 6.097-2.333.752-2.146-.037-3.385-1.588-4.192 1.13-.26 1.98-1.003 2.207-2.538Zm-3.95 5.538c-.533 2.147-4.148.986-5.32.695l.95-3.805c1.172.293 4.929.872 4.37 3.11Zm.535-5.569c-.487 1.953-3.495.96-4.47.717l.86-3.45c.975.243 4.118.696 3.61 2.733Z" fill="#fff"/></symbol><symbol id="RoundBtccashIcon" viewBox="0 0 32 32"><rect width="32" height="32" rx="16" fill="#8DC351"/><path d="M21.207 10.534c-.776-1.972-2.722-2.15-4.988-1.71l-.807-2.813-1.712.49.786 2.74c-.45.129-.908.27-1.363.41l-.79-2.757-1.71.49.804 2.813c-.368.114-.73.226-1.085.328l-.003-.01-2.362.677.525 1.83s1.258-.388 1.243-.358c.694-.2 1.035.139 1.2.468l.92 3.204c.047-.013.11-.03.184-.04l-.18.052 1.286 4.49c.032.227.004.612-.48.752.027.013-1.246.356-1.246.356l.247 2.143 2.228-.64c.415-.117.825-.227 1.226-.34l.817 2.845 1.71-.49-.807-2.815c.459-.122.916-.249 1.372-.38l.802 2.803 1.713-.491-.814-2.84c2.831-.991 4.638-2.294 4.113-5.07-.422-2.234-1.724-2.912-3.47-2.836.847-.79 1.212-1.858.641-3.3v-.001Zm-.65 6.77c.61 2.127-3.1 2.929-4.26 3.263l-1.08-3.77c1.159-.333 4.703-1.71 5.34.508v-.001Zm-2.322-5.09c.554 1.935-2.547 2.58-3.514 2.857l-.98-3.42c.966-.276 3.915-1.454 4.494.564v-.001Z" fill="#fff"/></symbol><symbol id="RoundEthIcon" viewBox="0 0 32 32"><rect width="32" height="32" rx="16" fill="#EBF0F1"/><g fill="#12100B"><path d="M15.998 4v16.565l7.497-4.345L15.998 4Z" fill-opacity=".8"/><path d="M15.998 4 8.5 16.22l7.498 4.35V4Z" fill-opacity=".45"/><path d="M15.998 21.968v6.027L23.5 17.616l-7.502 4.352Z" fill-opacity=".8"/><path d="M15.998 27.995v-6.028L8.5 17.617l7.498 10.378Z" fill-opacity=".45"/><path d="m15.998 20.573 7.497-4.353-7.497-3.348v7.701Z" fill-opacity=".6"/><path d="m8.5 16.22 7.498 4.353v-7.7L8.5 16.22Z" fill-opacity=".6"/></g></symbol><symbol id="RoundAddIcon" viewBox="0 0 32 32"><rect width="32" height="32" rx="16" fill="#FF444F"/><path d="M16.375 7.75a1 1 0 0 1 1 1v5.875h5.875a1 1 0 0 1 1 1v.75a1 1 0 0 1-1 1h-5.875v5.875a1 1 0 0 1-1 1h-.75a1 1 0 0 1-1-1v-5.875H8.75a1 1 0 0 1-1-1v-.75a1 1 0 0 1 1-1h5.875V8.75a1 1 0 0 1 1-1h.75Z" fill="#fff"/></symbol><symbol id="RoundBusdIcon" viewBox="0 0 32 32"><rect width="32" height="32" rx="16" fill="#F0B90B"/><path d="M23.522 13.5 26 16.03 16 26l-2.478-2.47 10-10.03Zm-3.76-3.75 2.477 2.53-10 9.97-2.478-2.47 10-10.03ZM8.477 13.5l2.477 2.53-2.477 2.47L6 16.03l2.478-2.53ZM16 6l2.478 2.53-6.24 6.22-2.477-2.47L16 6Z" fill="#fff"/></symbol><symbol id="RoundEursIcon" viewBox="0 0 32 32"><g clip-path="url(#a)"><rect width="32" height="32" rx="16" fill="#fff"/><path fill-rule="evenodd" clip-rule="evenodd" d="M0 16c0 8.837 7.164 16 16 16a15.948 15.948 0 0 0 6.351-1.31c-.773-.08-1.54-.199-2.3-.358-1.697-.365-3.252-.921-4.664-1.668-2.943-1.56-5.013-3.844-6.21-6.849H3.84l1.621-3.835H8.23a18.233 18.233 0 0 1-.15-2.266c0-.73.025-1.386.075-1.967H3.84l1.621-3.811h3.466c1.098-3.22 3.134-5.702 6.11-7.446A17.36 17.36 0 0 1 20.042.515 16.031 16.031 0 0 0 16 0C7.164 0 0 7.164 0 16ZM25.44 3.08c-4.917.63-9.81 2.669-11.63 6.857h14.82l-1.647 3.811H12.868c-.067.564-.1 1.253-.1 2.067 0 .814.067 1.536.2 2.165h12.07l-1.646 3.835h-8.903c2.021 3.333 7.176 5.497 12.571 5.747A15.954 15.954 0 0 0 32 16c0-5.306-2.583-10.009-6.56-12.92Z" fill="#2469E4"/></g></symbol><symbol id="RoundUsdIcon" viewBox="0 0 32 32"><rect width="32" height="32" rx="16" fill="#fff"/><path fill-rule="evenodd" clip-rule="evenodd" d="M15.323 0a15.92 15.92 0 0 0-8.297 2.903h18.465A15.922 15.922 0 0 0 17.193 0H15.323ZM3.898 5.806A15.972 15.972 0 0 0 2 8.709H30.517a15.957 15.957 0 0 0-1.898-2.903H3.898ZM.066 14.544c.087-.997.267-1.967.53-2.903h30.786c.263.936.443 1.906.53 2.903H.066Zm.006 2.904c.093.997.28 1.967.547 2.902h30.74c.268-.935.455-1.905.547-2.902H.072Zm3.624 8.708a15.982 15.982 0 0 1-1.924-2.903H30.206a15.978 15.978 0 0 1-1.924 2.903H3.696Zm11.617 5.789.048.002.049.002a15.751 15.751 0 0 0 9.697-2.889H6.871a15.75 15.75 0 0 0 8.44 2.885Z" fill="#F44336"/><path d="M15.658.008C7.465.174.787 6.5.068 14.548h15.59V.008Z" fill="#283991"/><g fill="#EFEFEF"><path d="m3.2 9.04.243.748h.79l-.64.463.245.749-.639-.463-.638.463.244-.749-.638-.463h.789l.243-.748ZM3.2 11.684l.243.749h.79l-.64.463.245.749-.639-.463-.638.463.244-.75-.638-.462h.789l.243-.749ZM5.85 5.072l.243.75h.79l-.639.462.244.749-.638-.463-.639.463.244-.749-.638-.463h.789l.244-.749ZM5.85 7.717l.243.749h.79l-.639.462.244.75-.638-.463-.639.462.244-.749-.638-.462h.789l.244-.749ZM5.85 10.362l.243.749h.79l-.639.462.244.75-.638-.464-.639.463.244-.749-.638-.462h.789l.244-.75ZM1.187 12.322l-.244-.749.639-.462h-.79l-.017-.055c-.086.267-.165.538-.237.811l.011-.008.638.463ZM2.561 8.355l.638-.463.639.463-.244-.749.638-.463h-.79L3.2 6.395l-.243.748h-.291l-.16.247.3.216-.244.75ZM5.85 3.925l.638.463-.244-.749.638-.463h-.456c-.387.29-.76.595-1.119.917l-.096.295.639-.463ZM7.862 3.066l.638-.463.638.463-.244-.75.638-.462h-.789l-.033-.1a15.82 15.82 0 0 0-.79.428l.185.135-.243.749ZM8.5 3.75l.244.748h.789l-.639.464.244.749-.638-.464-.638.464.243-.75-.638-.463h.79L8.5 3.75ZM8.5 6.395l.244.748h.789l-.639.463.244.75-.638-.464-.638.463.243-.749-.638-.463h.79l.243-.748ZM8.5 9.04l.244.748h.789l-.639.463.244.749-.638-.463-.638.463.243-.749-.638-.463h.79L8.5 9.04ZM8.5 11.684l.244.749h.789l-.639.463.244.749-.638-.463-.638.463.243-.75-.638-.462h.79l.243-.749ZM11.15 2.428l.244.748h.789l-.638.463.243.749-.638-.463-.638.463.244-.749-.639-.463h.79l.243-.748ZM11.15 5.072l.244.75h.789l-.638.462.243.749-.638-.463-.638.463.244-.749-.639-.463h.79l.243-.749ZM11.15 7.717l.244.749h.789l-.638.462.243.75-.638-.463-.638.462.244-.749-.639-.462h.79l.243-.749ZM11.15 10.362l.244.749h.789l-.638.462.243.75-.638-.464-.638.463.244-.749-.639-.462h.79l.243-.75ZM13.8 1.105l.244.75h.79l-.639.462.244.749-.638-.463-.639.463.244-.75-.638-.462h.789l.244-.749ZM13.8 3.75l.244.748h.79l-.639.464.244.749-.638-.464-.639.464.244-.75-.638-.463h.789l.244-.748ZM13.8 6.395l.244.748h.79l-.639.463.244.75-.638-.464-.639.463.244-.749-.638-.463h.789l.244-.748ZM13.8 9.04l.244.748h.79l-.639.463.244.749-.638-.463-.639.463.244-.749-.638-.463h.789l.244-.748ZM13.8 11.684l.244.749h.79l-.639.463.244.749-.638-.463-.639.463.244-.75-.638-.462h.789l.244-.749Z"/></g></symbol><symbol id="RoundPoundIcon" viewBox="0 0 32 32"><rect width="32" height="32" rx="16" fill="#fff"/><path fill-rule="evenodd" clip-rule="evenodd" d="M20.174.55c2.047.553 3.932 1.5 5.567 2.757l-5.567 5.567V.551ZM.55 11.827a15.942 15.942 0 0 1 2.756-5.568l5.568 5.568H.55Zm28.141-5.567a15.942 15.942 0 0 1 2.757 5.567h-8.324l5.567-5.567ZM.552 20.174a15.944 15.944 0 0 0 2.755 5.567l5.568-5.567H.55Zm5.707 8.518a15.944 15.944 0 0 0 5.567 2.756v-8.323l-5.567 5.567Zm0-25.385A15.943 15.943 0 0 1 11.826.551v8.323L6.259 3.307Zm13.915 28.141a15.944 15.944 0 0 0 5.567-2.756l-5.567-5.567v8.323Zm8.518-5.707-5.567-5.567h8.324a15.94 15.94 0 0 1-2.757 5.567Z" fill="#283991"/><path fill-rule="evenodd" clip-rule="evenodd" d="M31.865 13.913H18.087V.135a16.16 16.16 0 0 0-4.174 0v13.778H.135a16.16 16.16 0 0 0 0 4.174h13.778v13.778a16.166 16.166 0 0 0 4.174 0V18.087h13.778a16.166 16.166 0 0 0 0-4.174Zm-11.691 6.26 7.14 7.14c.328-.328.641-.67.94-1.026l-6.112-6.113h-1.968Zm-8.348.001v1.967l-6.113 6.113a16.04 16.04 0 0 1-1.027-.94l7.14-7.14Zm.004-8.348-7.14-7.14c-.328.329-.641.672-.94 1.027l6.113 6.113h1.967Zm15.484-7.14-7.14 7.14V9.86l6.113-6.113c.355.299.698.612 1.027.94Z" fill="#F44336"/></symbol></svg>