<svg viewBox="0 0 32 32" fill="none" xmlns="http://www.w3.org/2000/svg"><rect width="32" height="32" rx="15.989" fill="#283991"/><g fill="#fff"><path d="m24.338 8.11-.612.762.638.753-.99-.177-.356.896-.327-.897-.97.153.637-.745-.613-.745.964.171.356-.915.328.915.945-.171ZM10.973 24.526l1.079-1.345-1.667.302-.578-1.614-.629 1.614-1.702-.302 1.082 1.316-1.123 1.314 1.711-.27.578 1.582.628-1.58 1.746.312-1.125-1.329ZM23.726 25.714l.612-.762-.945.171-.328-.915-.356.915-.964-.17.613.744-.636.745.97-.152.326.895.357-.895.989.177-.638-.753ZM27.684 13.229l.612-.762-.945.17-.327-.914-.357.915-.964-.171.613.745-.637.745.97-.153.327.896.356-.895.99.176-.638-.752ZM20.914 14.404l-.612.762.638.753-.99-.177-.355.895-.327-.896-.97.153.636-.745-.613-.745.964.171.356-.915.328.915.945-.171Z"/></g><g fill="#fff"><path d="M10.828.859c.262-.09.526-.172.795-.248v4.426L16 .66v.369L10.828 6.2V.859ZM2.643 7.194h1.715l-.998-.999c.053-.069.107-.138.162-.206l2 2h-3.37c.157-.27.32-.536.49-.795ZM16 14.524v.467l-3.483-3.483H16v.795H13.78L16 14.524ZM6.514 14.458v1.541h.795v-2.705l-2.706 2.705h.369l1.542-1.541ZM7.28 11.508H.645c-.077.262-.147.527-.21.795h3.923L.66 15.999H2.79l4.492-4.491ZM16 7.989v-.795h-2.223L16 4.97V2.843l-5.146 5.146H16ZM6.514 5.037 5.45 3.975c-.377.331-.739.68-1.083 1.045l2.146 2.146.022.023.773.773V2.569c-.27.175-.537.356-.795.547v1.921ZM13.164 16l-1.541-1.542V16h-.795v-4.366L15.195 16h-2.031Z"/></g><path d="m13.311 12.303-.794-.795H16v-3.52h-5.146l-.026.028v-.028h.026L16 2.843V1.03L10.828 6.2V.86a15.942 15.942 0 0 0-3.52 1.71V7.96l.028.027h-.028v-.027l-.772-.772.005.005h-.027v-.028L4.368 5.02c-.295.312-.577.635-.846.97l2 1.999h-3.37a15.88 15.88 0 0 0-1.508 3.519h6.637l.027-.028v.028h-.027l-.767.767v.028h-.028L2.789 16h1.814l2.706-2.705v2.705h3.519v-4.366l4.367 4.366h.6c.069-.071.138-.142.205-.216v-.792l-2.689-2.688Z" fill="#F44336"/></svg>