<svg viewBox="0 0 32 32" fill="none" xmlns="http://www.w3.org/2000/svg"><rect width="32" height="32" rx="15.989" fill="#283991"/><g fill="#F8D12E"><path d="m16.363 3.976-.39-1.2-.39 1.2h-1.264l1.022.743-.39 1.2 1.021-.742 1.022.743-.39-1.201 1.022-.743h-1.263ZM16.363 26.65l-.39-1.202-.39 1.201h-1.264l1.022.743-.39 1.2 1.021-.742 1.022.743-.39-1.201 1.022-.743h-1.263ZM22.195 4.785l.39 1.201h1.263l-1.022.743.39 1.2-1.021-.742-1.022.743.39-1.201-1.021-.743h1.263l.39-1.201ZM26.83 10.174l-.39-1.2-.39 1.2h-1.263l1.022.743-.39 1.2 1.021-.741 1.022.742-.39-1.201 1.022-.743H26.83ZM26.541 19.556l.39 1.201h1.264l-1.022.743.39 1.2-1.022-.741-1.021.742.39-1.201-1.022-.742h1.263l.39-1.202ZM6.048 10.174l-.39-1.2-.39 1.2H4.005l1.022.743-.39 1.2 1.021-.741 1.022.742-.39-1.201 1.021-.743H6.048ZM27.424 14.02l.39 1.201h1.264l-1.022.743.39 1.2-1.022-.741-1.022.742.391-1.201-1.022-.743h1.263l.39-1.2ZM5.083 15.221l-.39-1.2-.39 1.2H3.04l1.022.743-.39 1.2 1.021-.741 1.022.742-.39-1.201 1.021-.743H5.083ZM5.521 19.556l.39 1.201h1.263l-1.021.743.39 1.2-1.022-.741L4.5 22.7l.39-1.201-1.021-.742H5.13l.39-1.202ZM22.768 25.124l-.39-1.2-.39 1.2h-1.263l1.021.743-.39 1.201 1.022-.742 1.022.742-.39-1.201 1.021-.743h-1.263ZM9.952 4.785l.39 1.201h1.263l-1.022.743.39 1.2-1.021-.742-1.022.743.39-1.201-1.022-.743h1.263l.39-1.201ZM9.88 25.048l-.39-1.201-.39 1.201H7.837l1.022.742-.39 1.201 1.022-.742 1.021.742-.39-1.201 1.022-.742H9.881Z"/></g></svg>