<svg viewBox="0 0 24 24" fill="none" xmlns="http://www.w3.org/2000/svg"><path d="M7.318 1.446a1 1 0 0 1 1.7.058l.055.111 7.505 17.996 5.665 1.42a1 1 0 0 1 .749 1.097l-.022.115a1 1 0 0 1-1.098.749l-.115-.022-6.15-1.54a1 1 0 0 1-.628-.48l-.052-.105-6.98-16.737-5.115 7.677a1 1 0 0 1-1.286.336l-.1-.059a1 1 0 0 1-.337-1.286l.059-.1 6.15-9.23Z" fill="#FF1D25"/><path d="M7.32 3.043a1 1 0 0 1 1.66 0l.064.108 7.493 14.909 5.706 1.43a1 1 0 0 1 .749 1.098l-.022.115a1 1 0 0 1-1.098.748l-.115-.021-6.15-1.54a1 1 0 0 1-.588-.414l-.062-.107-6.932-13.79-5.194 7.748a1 1 0 0 1-1.287.332l-.1-.059a1 1 0 0 1-.334-1.287l.06-.1 6.15-9.17Z" fill="#F7931E"/><path d="M7.32 3.043a1 1 0 0 1 1.633-.04l.07.11 7.55 13.52 5.874 2.932a1 1 0 0 1 .494 1.234l-.046.107a1 1 0 0 1-1.234.494l-.108-.046-6.15-3.07a1 1 0 0 1-.361-.306l-.065-.1L8.071 5.51l-5.24 7.816a1 1 0 0 1-1.287.332l-.1-.059a1 1 0 0 1-.334-1.287l.06-.1 6.15-9.17Z" fill="#F7931E"/><path d="M7.37 4.456a1 1 0 0 1 1.554-.01l.074.104 7.55 12.071 5.899 2.944a1 1 0 0 1 .494 1.234l-.046.108a1 1 0 0 1-1.234.494l-.108-.046-6.15-3.07a1.001 1.001 0 0 1-.32-.253l-.08-.112L8.048 6.805l-5.268 6.59a1 1 0 0 1-1.303.228l-.103-.072a1 1 0 0 1-.228-1.303l.072-.102 6.15-7.69Z" fill="#F7931E"/><path d="M7.37 5.996a1 1 0 0 1 1.463-.107l.085.09 7.565 9.07 5.964 2.976a1 1 0 0 1 .494 1.234l-.046.108a1 1 0 0 1-1.234.494l-.108-.046-6.15-3.07a1 1 0 0 1-.226-.155l-.095-.1L8.166 8.2l-5.385 6.735a1 1 0 0 1-1.303.228l-.103-.072a1 1 0 0 1-.228-1.303l.072-.103 6.15-7.69Z" fill="#FFC200"/><path d="M7.442 7.444a1 1 0 0 1 1.23-.147l.103.073 7.675 6.14 6.15 4.61a1 1 0 0 1-1.095 1.67l-.105-.07-6.175-4.629-7.001-5.6-5.516 5.526a1 1 0 0 1-1.32.084l-.095-.083a1 1 0 0 1-.084-1.32l.083-.094 6.15-6.16Z" fill="#FFC200"/><path d="M7.442 8.984a1 1 0 0 1 .954-.263l.125.041 7.7 3.08a.997.997 0 0 1 .157.08l.073.049 6.15 4.62a1 1 0 0 1-1.097 1.668l-.105-.069-6.044-4.54-6.964-2.787-5.683 5.694a1 1 0 0 1-1.32.084l-.095-.083a1 1 0 0 1-.084-1.32l.083-.094 6.15-6.16Z" fill="#8CC63F"/><path d="M15.85 10.23a1 1 0 0 1 .609.207l.099.087 6.15 6.16a1 1 0 0 1-1.321 1.496l-.095-.083-5.856-5.867H8.482l-5.881 4.42a1 1 0 0 1-1.319-.103l-.081-.096a1 1 0 0 1 .103-1.319l.095-.081 6.15-4.62a1 1 0 0 1 .472-.192l.13-.009h7.7Z" fill="#8CC63F"/><path d="M15.479 8.762a1 1 0 0 1 .98.135l.099.087 6.15 6.16a1 1 0 0 1-1.321 1.496l-.095-.083-5.684-5.693-6.964 2.785-6.043 4.541a1 1 0 0 1-1.319-.103l-.081-.096a1 1 0 0 1 .103-1.319l.095-.081 6.15-4.62a1 1 0 0 1 .15-.093l.08-.036 7.7-3.08Z" fill="#00B9F9"/><path d="M15.225 7.37a1 1 0 0 1 1.322.063l.084.093 6.15 7.7a1 1 0 0 1-1.478 1.342l-.084-.094-5.527-6.919-6.917 5.536-.177.114-6.15 3.08a1 1 0 0 1-.997-1.73l.101-.059 6.058-3.035 7.615-6.091Z" fill="#00B9F9"/><path d="M15.082 5.98a1 1 0 0 1 1.465-.077l.084.093 6.15 7.69a1 1 0 0 1-1.478 1.342l-.084-.093L15.833 8.2l-6.915 8.29a.997.997 0 0 1-.203.185l-.118.07-6.15 3.07a1 1 0 0 1-.995-1.732l.101-.058 5.963-2.977 7.566-9.068Z" fill="#0071BC"/><path d="M15.143 7.443a1 1 0 0 1 1.32-.082l.095.083 6.15 6.16a1 1 0 0 1-1.322 1.496l-.094-.083-5.443-5.452-6.992 6.993a1 1 0 0 1-.167.134l-.093.053-6.15 3.07a1 1 0 0 1-.995-1.731l.101-.058 6.002-2.997 7.588-7.586Z" fill="#0071BC"/><path d="M15.002 4.55a1 1 0 0 1 1.544-.189l.085.095 6.15 7.69a1 1 0 0 1-1.478 1.342l-.084-.093-5.269-6.59L8.998 17.92a.999.999 0 0 1-.283.295l-.118.07-6.15 3.07a1 1 0 0 1-.995-1.732l.101-.058 5.898-2.944L15.002 4.55Z" fill="#662D91"/><path d="M14.956 3.092a1 1 0 0 1 1.59-.27l.085.094 6.15 7.69a1 1 0 0 1-1.478 1.342l-.084-.093-5.174-6.47-7 13.983a1 1 0 0 1-.336.381l-.111.065-6.15 3.08a1 1 0 0 1-.997-1.73l.101-.058 5.852-2.932 7.552-15.082Z" fill="#C105C6"/></svg>