<svg viewBox="0 0 24 24" fill="none" xmlns="http://www.w3.org/2000/svg"><path d="M21 18a1 1 0 1 1 0 2H3a1 1 0 1 1 0-2h18Zm0-14a1 1 0 1 1 0 2H3a1 1 0 0 1 0-2h18Z" fill="#D6DADB"/><path d="M10.72 18.628c-.218-1.087-.35-2.356-.56-5.006l-.068-.848a238.07 238.07 0 0 0-.069-.857C9.431 4.752 8.68 1.91 5.967 2c-2.662.089-3.57 2.95-3.542 7.505a42.31 42.31 0 0 0 .294 4.512 49.541 49.541 0 0 0 .295 2.151 1 1 0 0 0 1.972-.337 47.533 47.533 0 0 1-.28-2.042 40.374 40.374 0 0 1-.281-4.296C4.404 6.028 5.037 4.033 6.033 4c.85-.028 1.543 2.6 1.997 8.083a256.949 256.949 0 0 1 .136 1.698c.216 2.735.354 4.046.592 5.239.387 1.938.975 3.022 2.274 2.98 1.193-.038 1.909-.902 2.336-2.293.264-.859.392-1.662.625-3.586.36-2.982.708-4.11 1.04-4.12.044-.002.055.003.102.052.105.111.221.328.33.65.21.618.328 1.297.544 2.928.234 1.778.363 2.518.632 3.31.441 1.3 1.197 2.097 2.391 2.06 2.078-.068 2.792-2.583 3.015-6.95.084-1.643.073-3.39.005-5.053a54.138 54.138 0 0 0-.054-1.064 1 1 0 0 0-1.996.134c.013.188.032.538.052 1.012a54.084 54.084 0 0 1-.004 4.87c-.157 3.066-.718 5.04-1.082 5.051-.045.002-.056-.003-.103-.053-.105-.11-.221-.328-.33-.65-.21-.618-.328-1.297-.544-2.928-.234-1.778-.363-2.518-.632-3.31-.441-1.3-1.197-2.097-2.391-2.059-1.193.038-1.909.903-2.336 2.293-.264.859-.392 1.662-.625 3.586-.31 2.56-.61 3.754-.898 4.047-.136-.26-.27-.698-.39-1.298Z" fill="#FF444F"/><path d="M3.962 14.275a21.967 21.967 0 0 1 .34-1.032c.28-.785.604-1.57.967-2.296C6.204 9.08 7.205 8 8 8c.488 0 .907.943 1.524 3.717C10.408 15.693 10.988 17 13 17c2.32 0 3.148-1.182 3.37-3.4l.028-.295C16.51 12.098 16.561 12 17 12c.742 0 .798.056 1.051.816C18.548 14.306 19.241 15 21 15a1 1 0 1 0 0-2c-.742 0-.798-.056-1.051-.816C19.452 10.694 18.759 10 17 10c-1.883 0-2.395.985-2.593 3.12l-.027.28c-.132 1.323-.326 1.6-1.38 1.6-.488 0-.907-.943-1.524-3.717C10.593 7.307 10.012 6 8 6c-1.83 0-3.266 1.546-4.52 4.053a22.847 22.847 0 0 0-1.062 2.517 24 24 0 0 0-.38 1.155 1 1 0 1 0 1.924.55Z" fill="#85ACB0"/></svg>