<svg viewBox="0 0 16 16" fill="none" xmlns="http://www.w3.org/2000/svg"><g fill-rule="evenodd" clip-rule="evenodd" fill="#333" clip-path="url(#a)"><path d="M8 0a.5.5 0 0 1 .5.5v4a.5.5 0 0 1-1 0v-4A.5.5 0 0 1 8 0ZM8 11a.5.5 0 0 1 .5.5v4a.5.5 0 0 1-1 0v-4A.5.5 0 0 1 8 11ZM11 8a.5.5 0 0 1 .5-.5h4a.5.5 0 0 1 0 1h-4A.5.5 0 0 1 11 8ZM0 8a.5.5 0 0 1 .5-.5h4a.5.5 0 0 1 0 1h-4A.5.5 0 0 1 0 8Z"/><path d="M8 14A6 6 0 1 0 8 2a6 6 0 0 0 0 12Zm0 1A7 7 0 1 0 8 1a7 7 0 0 0 0 14Z"/></g><defs><clipPath id="a"><path fill="#fff" d="M0 0h16v16H0z"/></clipPath></defs></svg>