<svg viewBox="0 0 24 24" fill="none" xmlns="http://www.w3.org/2000/svg"><g fill="#333"><path d="M6.5 9a.5.5 0 0 1 .492.41L7 9.5V12h4.5a.5.5 0 0 1 .492.41l.008.09a.5.5 0 0 1-.41.492L11.5 13H7v8.5a.5.5 0 0 1-.41.492L6.5 22a.5.5 0 0 1-.492-.41L6 21.5V19H2.5a.5.5 0 0 1-.492-.41L2 18.5a.5.5 0 0 1 .41-.492L2.5 18H6V9.5a.5.5 0 0 1 .41-.492L6.5 9Zm10 1a.5.5 0 0 1 .492.41l.008.09V19h4.5a.5.5 0 0 1 .492.41l.008.09a.5.5 0 0 1-.41.492L21.5 20H17v1.5a.5.5 0 0 1-.41.492L16.5 22a.5.5 0 0 1-.492-.41L16 21.5V16h-3.5a.5.5 0 0 1-.492-.41L12 15.5a.5.5 0 0 1 .41-.492L12.5 15H16v-4.5a.5.5 0 0 1 .41-.492L16.5 10ZM2.096 3.624c.299 0 .515-.056.648-.168a.545.545 0 0 0 .208-.432v-.056a.631.631 0 0 0-.2-.488c-.128-.123-.312-.184-.552-.184-.224 0-.435.059-.632.176a1.464 1.464 0 0 0-.504.488l-.752-.704a2.91 2.91 0 0 1 .344-.376c.123-.117.261-.216.416-.296.155-.085.328-.15.52-.192.192-.048.408-.072.648-.072.299 0 .568.035.808.104.245.07.453.17.624.304.176.128.31.283.4.464.096.181.144.384.144.608 0 .176-.03.336-.088.48-.053.144-.13.27-.232.376a1.248 1.248 0 0 1-.336.264 1.53 1.53 0 0 1-.408.136v.048c.165.032.317.085.456.16.144.07.267.16.368.272.107.112.19.245.248.4.059.15.088.32.088.512 0 .25-.05.477-.152.68a1.496 1.496 0 0 1-.432.52 2.09 2.09 0 0 1-.672.336c-.261.075-.55.112-.864.112-.283 0-.533-.03-.752-.088a2.362 2.362 0 0 1-.576-.232 2.254 2.254 0 0 1-.424-.344 2.851 2.851 0 0 1-.312-.408l.888-.688c.123.23.272.419.448.568.181.144.424.216.728.216.272 0 .483-.067.632-.2a.715.715 0 0 0 .232-.56v-.048c0-.23-.088-.4-.264-.512-.17-.117-.408-.176-.712-.176h-.504v-1h.52Zm5.1 3.472c-.73 0-1.271-.253-1.623-.76-.352-.507-.528-1.216-.528-2.128 0-.912.176-1.621.528-2.128.352-.507.893-.76 1.624-.76.73 0 1.272.253 1.624.76.352.507.528 1.216.528 2.128 0 .912-.176 1.621-.528 2.128-.352.507-.893.76-1.624.76Zm0-1.016c.32 0 .542-.117.665-.352s.184-.565.184-.992V3.68c0-.427-.061-.757-.184-.992s-.344-.352-.664-.352c-.32 0-.541.117-.664.352s-.184.565-.184.992v1.056c0 .427.061.757.184.992s.344.352.664.352Zm7.19-2.744h-.024l-.408.816-1.088 1.976-1.064-1.968-.424-.88h-.024V7H10.21V1.416h1.288l1.368 2.616h.016l1.352-2.616h1.296V7h-1.144V3.336Z"/></g></svg>