<svg viewBox="0 0 16 16" fill="none" xmlns="http://www.w3.org/2000/svg"><path d="M12.5 1h.023a.494.494 0 0 1 .27.095c.07.051.125.117.161.195l-.038-.068a.496.496 0 0 1 .044.083l2.994 6.485a.617.617 0 0 1 .036.109A.476.476 0 0 1 16 8l-.003.055a.476.476 0 0 1-.004.03L16 8a.498.498 0 0 1-.071.258l-.003.004-4 6.5-.004.005a.496.496 0 0 1-.187.174l-.011.006-.026.012a.52.52 0 0 1-.045.017l.07-.029A.503.503 0 0 1 11.5 15l.073-.005a.464.464 0 0 1-.049.005H3.5a.544.544 0 0 1-.15-.023.542.542 0 0 1-.08-.033.507.507 0 0 1-.132-.1l.062.056a.497.497 0 0 1-.154-.19l.036.064a.51.51 0 0 1-.017-.028l-.019-.037-3-6.5A.5.5 0 0 1 0 8v-.01a.5.5 0 0 1 .006-.066L0 8a.502.502 0 0 1 .089-.285l-.032.053a.5.5 0 0 1 .02-.035l.012-.018 4.5-6.5a.51.51 0 0 1 .187-.162l.019-.009a.499.499 0 0 1 .039-.016l-.058.025A.501.501 0 0 1 5 1l-.083.007A.497.497 0 0 1 4.99 1H12.5ZM6.827 8.5H1.28l2.322 5.031L4.6 12.2a.5.5 0 0 1 .847.523L5.4 12.8 4.5 14h6.19L7.989 8.598l-1.584 2.195a.5.5 0 0 1-.856-.508l.046-.078L6.827 8.5Zm5.577-6.014L8.783 7.5H10.5a.5.5 0 0 1 .09.992l-.09.008H9.059l2.486 4.971L14.604 8.5H12.5a.5.5 0 0 1-.09-.992l.09-.008h2.218l-2.314-5.014ZM11.521 2H5.809l.638 1.276A.5.5 0 0 1 5.6 3.8l-.047-.076-.624-1.246L1.453 7.5H7.44l-.887-1.776A.5.5 0 0 1 7.4 5.2l.047.076.699 1.398L11.521 2Z" fill="#333"/></svg>