<svg viewBox="0 0 16 16" fill="none" xmlns="http://www.w3.org/2000/svg"><g clip-path="url(#a)"><path d="M15.5 15a.5.5 0 0 1 .09.992L15.5 16H.5a.5.5 0 0 1-.09-.992L.5 15h15ZM5 12.292l2.146-2.146a.5.5 0 0 1 .638-.057l.07.057a.5.5 0 0 1 .057.638l-.057.07-3.013 3.012a.493.493 0 0 1-.236.123l-.036.005h-.002l-.014.003-.026.001h.02l.019-.004L4.5 14a.46.46 0 0 1-.151-.023l-.04-.015a.492.492 0 0 1-.076-.04l-.035-.024-.005-.003-.001-.001-.046-.04a.497.497 0 0 0 .042.037l.01.007a.484.484 0 0 1-.04-.033l-3.012-3.011a.5.5 0 0 1 .638-.765l.07.057L4 12.292V8H.5a.5.5 0 0 1-.09-.992L.5 7H4V.5a.5.5 0 0 1 .41-.492L4.5 0a.5.5 0 0 1 .492.41L5 .5V7h6V2.707L8.854 4.854a.5.5 0 0 1-.638.057l-.07-.057a.5.5 0 0 1-.057-.638l.057-.07 3.013-3.012a.485.485 0 0 1 .236-.123l.036-.006L11.5 1h.011c.021 0 .042.002.063.005l.031.006.046.012.04.015a.497.497 0 0 1 .076.04l.039.026.048.042-.043-.038.011.01a.434.434 0 0 1 .02.017l3.012 3.011a.5.5 0 0 1-.638.765l-.07-.057L12 2.707V7h3.5a.5.5 0 0 1 .09.992L15.5 8H12v6.5a.5.5 0 0 1-.41.492L11.5 15a.5.5 0 0 1-.492-.41L11 14.5V8H5v4.292Z" fill="#333"/></g><defs><clipPath id="a"><path fill="#fff" d="M0 0h16v16H0z"/></clipPath></defs></svg>